<svg xmlns="http://www.w3.org/2000/svg" viewBox="0 0 793.7 294.8" enable-background="new 0 0 793.7 294.8"><style type="text/css">.st0{fill:#FFFFFF;} .st1{fill:#1268B3;}</style><path class="st0" d="M620 32.2h144.7v150.4H620z"/><path class="st1" d="M763 28.1H621.8s-8.6 0-8.6 8.6v141.2s0 8.6 8.6 8.6H763s8.6 0 8.6-8.6V36.7s0-8.6-8.6-8.6zm-69.6 9.6l31.1 32.6c-1 .1-19.1.1-19.1.1l.1.3-.1 68.8h-24l-.2-69-18.7-.2h-.2l31.1-32.6zm61.8 106.1c-3.1 7.5-9.8 13.7-16.8 18.3-15.7 10.5-35.5 14.9-54.8 12.4-1.7-.1-3.6-.5-5.2-.7h.1v-.1c-5.3-.8-10.4-2.4-15.4-4-11.9-4.5-23.8-12-31.1-23.4-2.6-4.5-4.4-9.6-4.9-14.9-.6-9.7 3.4-18.7 9.9-25.7 1.8-2.1 3.8-3.6 5.6-5.4v-.2c-3.3-2.4-6.7-4.6-10-7l.4-.2 34.4.1.1-.1.2.2-.1 24.1-.1.1-7.9-5.3c-3.4 2.9-5.5 7-7.3 10.8-2.2 5.9-1.7 12.8 1.9 17.9 3.9 6.5 9.9 10.1 16.3 13.2 6.9 2.8 14.4 4.5 22.1 4.4 12.3-.3 24.8-4.3 33.3-12.4 4-4 8-9.7 7.5-15.9.3-10.6-7.9-18.6-16.3-23.7v-.3l17.3-11.3c.1-.1.3-.1.4-.3 4.2 3.1 8.9 5.5 12.4 9.7 4.3 4.7 8.2 9.7 9.5 15.8 2 8.1 1.6 16.5-1.5 23.9z"/><path d="M65.3 150.9H116v35.5H22.9V28.1h42.4v122.8M167.5 186.4h-43.9V28h43.9v158.4M428.9 28l45.3.1c0 21.1-.3 41.9 0 62.4l31.1-62.4h50.4L516 99.8l36.8 86.6h-47.5l-31.1-75.2v-.4 75.6h-84.8l-5.6-24.7h-33.1l-5.8 24.7h-81.3l-38.8-74.9h-.4v74.9h-42.3V28.1h41.3l39.2 73.8.7.7c.6-26.4.3-74.6.3-74.6h43.3v130.1l.3.4L343.8 28l50 .1 34.9 132.4c0 .3.1.4.2.7V28zm-53.7 97.2l-7.7-35.9-8.3 35.9h16M70.1 231.5c-1.2.2-2.1.5-2.7 1-.6.5-1.1 1.3-1.4 2.3-3.8 10.4-7.5 21-10.8 31.8h-.8c-2.6-7.4-5.3-15-8.3-22.7l-8 22.7h-.8c-3.7-11-7-20.6-10-28.8-.8-2.2-1.5-3.8-2.1-4.8-.7-.9-1.8-1.4-3.2-1.5v-1h12.7v1c-2.3 0-3.4.6-3.4 1.8 0 .8.2 1.6.6 2.4l7.5 20.2 5.6-15.1-1.7-4.4c-.8-2.2-1.5-3.5-2.2-4.1-.7-.6-1.7-.8-3.1-.8v-1h13.9v1c-.8 0-1.7.1-2.6.3-.9.3-1.4.9-1.5 1.8 0 .4.1 1 .4 1.6.3.7.6 1.5 1 2.6L56 256l6.5-18.2c.5-1.3.8-2.6.8-3.9 0-1-.4-1.7-1.1-2-.8-.3-1.6-.5-2.6-.5v-1H70v1.1M108.1 266H79.9v-1c1.7 0 2.8-.4 3.5-1 .7-.6 1-1.8 1-3.8v-23.8c0-2.1-.3-3.4-1-3.9-.7-.6-1.9-.9-3.5-.9v-1h27.7l.2 7.7h-1.4c-.3-2.4-1-3.9-2-4.6-1.1-.7-3.1-1.1-5.9-1h-7.1c-.5 0-.9.1-1.2.2-.3.2-.5.7-.5 1.6v11.9h8c2.3 0 3.7-.3 4.4-1.1.4-.4.7-1 .9-1.6.2-.6.3-1.4.4-2.4h1.2v12.5h-1.2c-.2-2.1-.7-3.5-1.4-4.2-.8-.7-2.2-.9-4.3-.9l-8-.1v13.3c0 .5 0 .9.2 1.2.1.3.4.6.8.7.8.3 3.1.4 6.8.4 3.2 0 5.7-.5 7.4-1.5 1.7-1 3-2.9 4.1-5.5h1.5l-2.4 8.8M140.3 265c2.1 0 3.5-.4 4.2-1.1.6-.7.9-1.9.8-3.7v-23.8c0-1.9-.3-3.2-.9-3.9-.7-.6-2-.9-4.1-1v-1h15.4v1c-1.8 0-3.1.2-3.9.8-.8.6-1.2 2-1.2 4v23.8c0 2 .3 3.3 1.1 3.9.4.3 1 .5 1.6.7.6.1 1.4.2 2.3.3v1h-15.4v-1M209.1 231.5c-1.6 0-2.7.3-3.5.9-.3.3-.6.8-.8 1.3-.2.6-.3 1.5-.3 2.6v23.8c0 2 .3 3.2 1 3.8.7.6 1.9 1 3.5 1v1h-14.6v-1c2 0 3.3-.4 3.9-1.2.6-.7.9-2.1.8-4.2v-24.1h-.1L185.9 266h-.7l-13-29.3h-.1v21.4c0 2.7.3 4.5 1.1 5.4.7.9 2 1.4 3.8 1.5v1h-12.2v-1c1.9-.1 3.3-.5 4-1.4.7-.8 1-2.7 1-5.5v-21.8c0-2-.3-3.4-1-3.9-.7-.6-2-.9-3.9-.9v-1h10.3l12 27.1 11.5-27.1H209v1M219.7 230.5h13.7c3.7 0 6.9.7 9.5 2.2 2.7 1.5 4 4 4.1 7.4 0 1-.1 1.9-.3 2.7-.3.8-.6 1.5-.9 2.1-.7 1.2-1.4 2-1.9 2.4-2 2.1-5.7 3.2-11 3.2-1.2 0-2.3-.1-3.5-.2v9.8c0 1.9.3 3.2 1 3.8.7.6 2 1 3.9 1v1h-14.5v-1c2.1-.1 3.4-.6 3.8-1.5.3-.4.4-1 .5-1.6V236.2c0-1.9-.2-3.1-.7-3.8-.6-.6-1.8-1-3.6-1.1v-.8h-.1zm9.7 17.8c1 .1 2 .2 3.1.2.5 0 1.3 0 2.3-.2.9-.1 1.9-.4 2.9-.9s1.9-1.3 2.6-2.5c.7-1.1 1-2.7 1.1-4.7 0-1.9-.4-3.4-1.2-4.5-.8-1.1-1.7-1.8-2.9-2.3-1.1-.5-2.2-.8-3.3-.9-1.1-.1-1.9-.1-2.5-.1-.8 0-1.3.1-1.6.2-.3.2-.5.7-.5 1.6v14.1M290 266h-8.4l-12.4-16.6-2.9.1v10.6c0 1.7.2 2.9.8 3.7.5.7 1.8 1.1 3.8 1.2v1h-14.4v-1c2-.1 3.3-.6 3.8-1.3.3-.4.5-1 .6-1.7 0-.6.1-1.4.1-2.4v-23.2c0-1.9-.2-3.2-.8-3.8-.6-.6-1.8-.9-3.6-1v-1H271c1.2 0 2.6.1 4.1.3 1.5.2 2.9.6 4.3 1.3 1.4.6 2.5 1.6 3.5 2.8.9 1.3 1.3 2.9 1.3 5 0 1.8-.4 3.2-1 4.3-.7 1.1-1.6 2-2.6 2.7-.5.3-1 .6-1.5.8-.5.2-1 .4-1.6.5-1.1.3-2 .6-2.6.7l10.7 13.6c.6.7 1.2 1.3 1.9 1.7.7.5 1.6.7 2.6.8v.9h-.1zm-23.6-18.4c1.1 0 2.4-.1 3.8-.3 1.4-.1 2.7-.4 4-.8 1.3-.5 2.3-1.2 3.2-2.3.8-1.1 1.2-2.5 1.2-4.4 0-1.8-.4-3.2-1-4.2-.7-1-1.6-1.7-2.6-2.2-1-.5-2-.7-3-.8-1-.1-1.7-.1-2.3-.1-1.3 0-2.2.1-2.6.3-.4.3-.6.8-.6 1.6v13.2M315.1 266.8c-4.8 0-8.8-1.7-12-5-3.3-3.2-4.9-7.7-5-13.5.1-6.2 1.9-10.8 5.4-13.9 3.3-3.1 7.2-4.6 11.6-4.6 4.4 0 8.4 1.5 11.8 4.6 3.4 3.1 5.2 7.8 5.3 13.9-.1 5.8-1.7 10.3-5 13.5-3.2 3.3-7.2 5-12.1 5zm0-2c3 0 5.6-1.3 7.7-3.9 2.1-2.6 3.3-6.8 3.3-12.7-.1-6-1.2-10.3-3.5-12.9-2.3-2.5-4.8-3.7-7.6-3.7s-5.3 1.2-7.5 3.7c-2.3 2.6-3.5 6.9-3.6 12.9 0 5.9 1.2 10.1 3.4 12.7 2.3 2.7 4.9 4 7.8 3.9M375.7 231.5c-1.2 0-2.1.3-2.7 1-.7.7-1.4 2-2.1 4l-11.6 30.1h-.8l-12.8-29.5c-1-2.4-1.9-3.9-2.6-4.7-.8-.7-1.7-1-2.9-1v-1H354v1c-1.4 0-2.4.1-3 .4-.6.2-.9.8-.9 1.6 0 .4.2 1.1.7 2.1.4 1 .9 2.2 1.5 3.6l7.9 18.1 7.6-19.7c.1-.2.3-.8.6-1.6.2-.8.4-1.5.4-2.2 0-1.1-.4-1.7-1.1-2-.8-.3-1.7-.4-2.8-.4v-1h10.8v1.2M414 266h-28.2v-1c1.7 0 2.8-.4 3.5-1 .7-.6 1-1.8 1-3.8v-23.8c0-2.1-.3-3.4-1-3.9-.7-.6-1.9-.9-3.5-.9v-1h27.7l.2 7.7h-1.4c-.3-2.4-1-3.9-2-4.6-1.1-.7-3.1-1.1-5.9-1h-7.1c-.5 0-.9.1-1.3.2-.3.2-.5.7-.5 1.6v11.9h8c2.3 0 3.7-.3 4.4-1.1.4-.4.7-1 .9-1.6.2-.6.3-1.4.4-2.4h1.2v12.5h-1.2c-.2-2.1-.7-3.5-1.4-4.2-.8-.7-2.2-.9-4.3-.9l-8-.1v13.3c0 .5 0 .9.2 1.2.1.3.4.6.8.7.8.3 3.1.4 6.8.4 3.2 0 5.7-.5 7.4-1.5 1.7-1 3-2.9 4.1-5.5h1.5L414 266M477.1 231.5c-.5 0-.9.1-1.4.2-.4.2-1 .4-1.5.8s-1.1 1-1.8 1.8-1.5 2-2.4 3.4l-7.7 12.1v10.4c0 1.9.3 3.2 1 3.8.7.6 2.1 1 4.4 1v1h-15.9v-1c2.5 0 4-.5 4.6-1.3.4-.4.6-1 .6-1.7 0-.6.1-1.5.1-2.5v-9.3l-6.8-10.3c-2.5-3.9-4.3-6.3-5.3-7.2-.6-.5-1.1-.9-1.5-1-.5-.1-1-.2-1.6-.2v-1h14.6v1c-1.2 0-2.1.1-2.7.3-.7.2-1 .7-1 1.4 0 .3.1.6.3 1.1l.6 1.2 7.7 11.9 7.5-12.1c.4-.6.7-1.2.7-2s-.4-1.3-1.1-1.6c-.8-.1-1.6-.2-2.4-.2v-1h11.4v1M503.4 266.8c-4.8 0-8.8-1.7-12-5-3.3-3.2-4.9-7.7-5-13.5.1-6.2 1.9-10.8 5.4-13.9 3.3-3.1 7.2-4.6 11.6-4.6 4.4 0 8.4 1.5 11.8 4.6 3.4 3.1 5.2 7.8 5.3 13.9-.1 5.8-1.7 10.3-5 13.5-3.2 3.3-7.3 5-12.1 5zm0-2c3 0 5.6-1.3 7.7-3.9 2.1-2.6 3.3-6.8 3.3-12.7-.1-6-1.2-10.3-3.5-12.9-2.3-2.5-4.8-3.7-7.6-3.7s-5.3 1.2-7.5 3.7c-2.3 2.6-3.5 6.9-3.6 12.9 0 5.9 1.2 10.1 3.4 12.7 2.3 2.7 4.8 4 7.8 3.9M567.1 231.5c-1.9.1-3.2.6-3.9 1.5-.7.9-1 2.7-1 5.4v14c0 1.1-.1 2.4-.2 4-.2 1.6-.7 3.2-1.4 4.8-.8 1.5-2.1 2.8-4 3.9s-4.5 1.6-7.9 1.7c-3.2 0-5.7-.6-7.5-1.8-1.8-1.1-3-2.4-3.9-3.9-.8-1.5-1.2-3.1-1.4-4.6-.2-1.4-.2-2.6-.2-3.5v-16.7c0-1.9-.2-3.2-.8-3.9-.6-.6-1.9-.9-3.8-1v-1h14.7v1c-2 .1-3.3.4-3.9 1.1-.6.6-.9 1.9-.8 3.8v17.2c0 .9 0 1.9.1 3.1.1 1.2.5 2.4 1 3.6.6 1.1 1.5 2.1 2.8 2.9 1.2.9 2.9 1.3 5.2 1.3 4.2-.1 7-1.5 8.6-4.3.4-.5.7-1.4.9-2.5.2-1.1.3-2.7.3-4.8v-14.5c0-2.8-.3-4.7-1-5.5-.4-.5-.9-.8-1.5-1-.6-.2-1.4-.3-2.3-.3v-1h12v1M610.4 266H602l-12.4-16.6-2.9.1v10.6c0 1.7.2 2.9.8 3.7.5.7 1.8 1.1 3.8 1.2v1H577v-1c2-.1 3.3-.6 3.8-1.3.3-.4.5-1 .6-1.7V236.4c0-1.9-.2-3.2-.8-3.8-.6-.6-1.8-.9-3.6-1v-1h14.3c1.2 0 2.6.1 4.1.3 1.5.2 2.9.6 4.3 1.3 1.4.6 2.5 1.6 3.5 2.8.9 1.3 1.3 2.9 1.3 5 0 1.8-.4 3.2-1 4.3-.7 1.1-1.6 2-2.6 2.7-.5.3-1 .6-1.5.8-.5.2-1 .4-1.5.5-1.1.3-2 .6-2.6.7l10.7 13.6c.6.7 1.2 1.3 1.9 1.7.7.5 1.6.7 2.6.8v.9h-.1zm-23.7-18.4c1.1 0 2.4-.1 3.8-.3 1.4-.1 2.7-.4 4-.8 1.3-.5 2.3-1.2 3.2-2.3.8-1.1 1.2-2.5 1.2-4.4 0-1.8-.4-3.2-1-4.2-.7-1-1.6-1.7-2.6-2.2-1-.5-2-.7-3-.8-1-.1-1.7-.1-2.3-.1-1.3 0-2.2.1-2.6.3-.4.3-.6.8-.6 1.6v13.2M654.5 231.5c-1.7 0-3 .3-3.7.9-.8.6-1.1 1.9-1.1 4v25.4c0 1 .3 1.7 1 1.9.7.3 2.1.4 4.2.3 2 0 3.7-.1 5.1-.2 1.5-.1 2.7-.3 3.8-.8 2.1-.8 3.8-2.9 5.2-6.2h1.3l-2.5 9.4h-28v-1c1.6 0 2.8-.4 3.5-1 .7-.6 1-1.8 1-3.8v-23.8c0-2.1-.3-3.4-1-3.9-.7-.6-1.9-.9-3.5-.9v-1h14.6v.7M679.9 265c2.1 0 3.6-.4 4.2-1.1.6-.7.9-1.9.8-3.7v-23.8c0-1.9-.3-3.2-.9-3.9-.7-.6-2-.9-4.2-1v-1h15.4v1c-1.8 0-3.1.2-3.9.8-.8.6-1.2 2-1.2 4v23.8c0 2 .3 3.3 1.1 3.9.4.3 1 .5 1.6.7.6.1 1.4.2 2.3.3v1h-15.4v-1M727.5 253.7c-.3-2.2-.8-3.6-1.6-4.2-.8-.7-2.2-.9-4.1-.9l-7.5-.1v11.8c0 1.9.3 3.2 1 3.8.7.6 1.9 1 3.7 1v1h-14.5v-1c1.9 0 3.2-.4 3.7-1.2.6-.7.8-2.1.8-4.2v-23.2c0-2.1-.3-3.4-1-3.9-.7-.6-1.9-.9-3.5-.9v-1h27.7l.2 7.7H731c-.3-2.4-1-3.9-2-4.6-1.1-.7-3.1-1.1-5.9-1H716c-.6 0-1.1.1-1.3.3-.2.3-.4.8-.4 1.6v11.9h7.5c2.1 0 3.5-.3 4.2-1.1.8-.7 1.3-2.1 1.5-4h1.2V254h-1.2M769.5 266h-28.2v-1c1.6 0 2.8-.4 3.5-1 .7-.6 1-1.8 1-3.8v-23.8c0-2.1-.3-3.4-1-3.9-.7-.6-1.9-.9-3.5-.9v-1H769l.2 7.7h-1.4c-.3-2.4-.9-3.9-2-4.6-1.1-.7-3.1-1.1-5.9-1h-7.1c-.5 0-.9.1-1.2.2-.3.2-.5.7-.5 1.6v11.9h8c2.3 0 3.7-.3 4.4-1.1.4-.4.7-1 .9-1.6.2-.6.3-1.4.4-2.4h1.2v12.5h-1.2c-.2-2.1-.7-3.5-1.4-4.2-.8-.7-2.2-.9-4.3-.9l-8-.1v13.3c0 .5 0 .9.2 1.2.1.3.4.6.8.7.8.3 3.1.4 6.8.4 3.2 0 5.7-.5 7.4-1.5 1.7-1 3-2.9 4.1-5.5h1.5l-2.4 8.8"/><path d="M22.9 200h748.7v1.8H22.9zM570.2 42.2c0-8.1 6.6-14.1 14.3-14.1 7.7 0 14.3 6 14.3 14.1 0 8.2-6.6 14.2-14.3 14.2-7.8-.1-14.3-6-14.3-14.2zm14.3 12.7c6.9 0 12.4-5.4 12.4-12.8 0-7.2-5.5-12.7-12.4-12.7-7 0-12.4 5.5-12.4 12.7 0 7.4 5.4 12.8 12.4 12.8zm-3-4.4H579V33.9h6.3c3.9 0 5.9 1.4 5.9 4.7 0 3-1.9 4.3-4.3 4.6l4.7 7.3h-2.8l-4.4-7.2h-2.9v7.2zm3-9.3c2.1 0 4-.2 4-2.7 0-2.1-1.9-2.4-3.6-2.4h-3.4v5.1h3"/></svg>