<?xml version="1.0" encoding="UTF-8" standalone="no"?>
<!DOCTYPE svg PUBLIC "-//W3C//DTD SVG 1.1//EN" "http://www.w3.org/Graphics/SVG/1.1/DTD/svg11.dtd">
<svg width="100%" height="100%" viewBox="0 0 1724 427" version="1.1" xmlns="http://www.w3.org/2000/svg" xmlns:xlink="http://www.w3.org/1999/xlink" xml:space="preserve" xmlns:serif="http://www.serif.com/" style="fill-rule:evenodd;clip-rule:evenodd;stroke-linecap:square;stroke-miterlimit:10;">
    <g transform="matrix(1,0,0,1,-890.12,-1008.07)">
        <g id="Calque-1" serif:id="Calque 1" transform="matrix(4.16667,0,0,4.16667,0,0)">
            <g transform="matrix(1,0,0,1,386.434,326.812)">
                <path d="M0,-67.505C15.599,-67.505 23.488,-59.055 23.488,-59.055L20.053,-54.321C20.053,-54.321 12.437,-61.561 0.184,-61.561C-15.138,-61.561 -26.096,-49.675 -26.096,-34.263C-26.096,-18.667 -15.138,-5.944 0.368,-5.944C13.559,-5.944 21.54,-14.671 21.54,-14.671L25.253,-10.124C25.253,-10.124 16.342,0 0.274,0C-19.042,0 -32.783,-15.138 -32.783,-34.172C-32.783,-53.111 -18.667,-67.505 0,-67.505" style="fill:rgb(156,28,36);fill-rule:nonzero;stroke:rgb(156,28,36);stroke-width:3.46px;"/>
            </g>
            <g transform="matrix(1,0,0,1,436.296,326.812)">
                <path d="M0,-66.393L6.504,-66.393L6.504,-23.957C6.504,-12.723 13.743,-5.944 24.983,-5.944C36.219,-5.944 43.549,-12.723 43.549,-24.142L43.549,-66.393L49.962,-66.393L49.962,-23.868C49.962,-9.38 39.839,0 25.077,0C10.214,0 0,-9.38 0,-23.868L0,-66.393Z" style="fill:rgb(156,28,36);fill-rule:nonzero;stroke:rgb(156,28,36);stroke-width:3.46px;"/>
            </g>
            <g transform="matrix(1,0,0,1,571.558,325.697)">
                <path d="M0,-65.278L36.771,-65.278L36.771,-59.52L6.411,-59.52L6.411,-35.749L31.205,-35.749L31.205,-29.989L6.411,-29.989L6.411,-5.757L38.442,-5.757L38.442,0L0,0L0,-65.278Z" style="fill:rgb(156,28,36);fill-rule:nonzero;stroke:rgb(156,28,36);stroke-width:3.46px;"/>
            </g>
            <g transform="matrix(1,0,0,1,261,310.468)">
                <path d="M0,-34.818C-1.119,-37.886 -2.508,-43.27 -2.508,-43.27L-2.692,-43.27C-2.692,-43.27 -4.086,-37.886 -5.2,-34.818L-23.222,15.23L-30,15.23L-6.035,-50.048L0.837,-50.048L24.792,15.23L18.014,15.23L0,-34.818Z" style="fill:rgb(156,28,36);fill-rule:nonzero;stroke:rgb(156,28,36);stroke-width:3.46px;"/>
            </g>
            <g transform="matrix(1,0,0,1,332.067,306.435)">
                <path d="M0,-27.031C0,-42.239 -10.875,-46.296 -17.301,-46.296L-36.719,-46.296L-34.542,-40.404L-17.301,-40.404C-15.394,-40.404 -5.89,-39.761 -5.89,-27.031C-5.89,-14.417 -15.969,-14.272 -16.073,-14.272L-24.883,-14.272L-12.523,19.265L-5.042,19.265L-15.241,-8.455C-10.344,-8.813 0,-12.539 0,-27.031" style="fill:rgb(156,28,36);fill-rule:nonzero;stroke:rgb(156,28,36);stroke-width:3.46px;"/>
            </g>
            <g transform="matrix(1,0,0,1,547.074,306.435)">
                <path d="M0,-27.031C0,-42.239 -10.875,-46.296 -17.301,-46.296L-36.719,-46.296L-34.543,-40.404L-17.301,-40.404C-15.394,-40.404 -5.89,-39.761 -5.89,-27.031C-5.89,-14.417 -15.969,-14.272 -16.073,-14.272L-24.883,-14.272L-12.522,19.265L-5.042,19.265L-15.241,-8.455C-10.344,-8.813 0,-12.539 0,-27.031" style="fill:rgb(156,28,36);fill-rule:nonzero;stroke:rgb(156,28,36);stroke-width:3.46px;"/>
            </g>
        </g>
    </g>
</svg>
