<svg id="SvgjsSvg1070" width="5000" height="1685" xmlns="http://www.w3.org/2000/svg" version="1.1" xmlns:xlink="http://www.w3.org/1999/xlink" xmlns:svgjs="http://svgjs.com/svgjs" viewBox="0 0 304.3999938964844 102.60000610351562"><defs id="SvgjsDefs1071"></defs><g id="SvgjsG1073" transform="rotate(0 26.183334350585938 50)"><svg height="100" viewBox="0 0 43.53125 84.0078125" xmlns="http://www.w3.org/2000/svg" version="1.1" xmlns:xlink="http://www.w3.org/1999/xlink" xmlns:svgjs="http://svgjs.com/svgjs" preserveAspectRatio="none" width="52.366668701171875" x="0" y="0" fill="#4c721d" stroke="none"><g><svg xmlns="http://www.w3.org/2000/svg" xmlns:xlink="http://www.w3.org/1999/xlink" version="1.1" x="0px" y="0px" viewBox="27.703125 7.453125 43.53125 84.0078125" enable-background="new 0 0 100.06 100" xml:space="preserve" width="43.53125" height="84.0078125"><g><path d="M57.884,64.935c-0.935,0-1.712,0.669-1.882,1.554h-2.33c-0.096,0-0.189,0.039-0.258,0.106l-3.436,3.436v-6.382   c0.885-0.17,1.554-0.947,1.554-1.881c0-1.06-0.859-1.919-1.918-1.919s-1.918,0.859-1.918,1.919c0,0.934,0.669,1.711,1.554,1.881   v7.262v0.352l-4.053-4.053v-3.505c0-0.096-0.039-0.189-0.107-0.258l-0.141-0.141c0.505-0.747,0.429-1.769-0.231-2.43   c-0.749-0.749-1.964-0.749-2.713,0s-0.749,1.964,0,2.713c0.661,0.661,1.683,0.737,2.429,0.232l0.035,0.034v3.504   c0,0.054,0.015,0.106,0.038,0.154l-1.209,1.21l-0.026,0.064v3.452c-0.383,0.047-0.686,0.362-0.686,0.758   c0,0.428,0.349,0.776,0.776,0.776s0.776-0.349,0.776-0.776c0-0.396-0.302-0.711-0.685-0.758v-3.414l1.166-1.166l1.546,1.546   l-0.898,0.897l-0.027,0.064v2.531c-0.383,0.047-0.685,0.361-0.685,0.757c0,0.429,0.349,0.776,0.776,0.776s0.776-0.348,0.776-0.776   c0-0.396-0.302-0.71-0.685-0.757v-2.493l0.871-0.871l1.012,1.012v2.678c-0.383,0.047-0.685,0.362-0.685,0.758   c0,0.428,0.348,0.775,0.776,0.775s0.776-0.348,0.776-0.775c0-0.396-0.302-0.711-0.685-0.758v-2.495l1.746,1.745   c0.005,0.005,0.012,0.003,0.017,0.007v18.815c0,0.201,0.163,0.364,0.364,0.364s0.364-0.163,0.364-0.364V71.062l1.591-1.591v3.577   c-0.383,0.048-0.685,0.362-0.685,0.758c0,0.428,0.349,0.776,0.776,0.776s0.776-0.349,0.776-0.776c0-0.396-0.303-0.711-0.686-0.758   v-3.76l1.905-1.905v5.4c-0.383,0.048-0.685,0.361-0.685,0.757c0,0.429,0.349,0.776,0.776,0.776s0.775-0.348,0.775-0.776   c0-0.396-0.302-0.71-0.685-0.757v-4.685l1.897,1.898v2.321c-0.384,0.047-0.685,0.361-0.685,0.757c0,0.429,0.348,0.776,0.776,0.776   c0.428,0,0.775-0.348,0.775-0.776c0-0.396-0.302-0.71-0.685-0.757v-2.359l-0.026-0.064l-2.054-2.054v-0.624h0.667l3.73,3.731v0.576   c-0.384,0.048-0.685,0.362-0.685,0.758c0,0.428,0.348,0.776,0.776,0.776c0.428,0,0.775-0.349,0.775-0.776   c0-0.396-0.302-0.711-0.685-0.758V70.91l-0.026-0.064l-3.63-3.629h1.238c0.17,0.885,0.947,1.555,1.882,1.555   c1.06,0,1.918-0.859,1.918-1.919C59.802,65.794,58.943,64.935,57.884,64.935z M43.956,72.998c0,0.327-0.267,0.594-0.594,0.594   c-0.327,0-0.594-0.267-0.594-0.594c0-0.295,0.221-0.53,0.503-0.575c0.031-0.005,0.059-0.019,0.091-0.019s0.061,0.014,0.091,0.019   C43.735,72.469,43.956,72.703,43.956,72.998z M45.925,73.456c0,0.328-0.267,0.595-0.594,0.595s-0.594-0.267-0.594-0.595   c0-0.295,0.22-0.529,0.503-0.575c0.031-0.005,0.059-0.019,0.091-0.019s0.061,0.014,0.091,0.019   C45.705,72.927,45.925,73.161,45.925,73.456z M47.99,73.782c0,0.327-0.267,0.594-0.594,0.594c-0.327,0-0.594-0.267-0.594-0.594   c0-0.296,0.221-0.531,0.503-0.576c0.031-0.005,0.059-0.019,0.091-0.019s0.06,0.014,0.091,0.019   C47.77,73.252,47.99,73.486,47.99,73.782z M52.255,73.806c0,0.328-0.267,0.595-0.594,0.595c-0.328,0-0.595-0.267-0.595-0.595   c0-0.295,0.22-0.529,0.503-0.575c0.031-0.005,0.06-0.019,0.092-0.019s0.06,0.014,0.091,0.019   C52.034,73.275,52.255,73.511,52.255,73.806z M54.343,73.54c0,0.328-0.267,0.595-0.594,0.595c-0.328,0-0.595-0.267-0.595-0.595   c0-0.295,0.22-0.529,0.503-0.575c0.031-0.005,0.06-0.019,0.092-0.019s0.06,0.014,0.091,0.019   C54.122,73.01,54.343,73.245,54.343,73.54z M55.92,72.5c0.282,0.045,0.503,0.28,0.503,0.575c0,0.328-0.267,0.595-0.594,0.595   c-0.328,0-0.595-0.267-0.595-0.595c0-0.295,0.22-0.529,0.503-0.575c0.031-0.005,0.06-0.019,0.092-0.019S55.889,72.495,55.92,72.5z    M58.42,71.706c0.282,0.045,0.503,0.28,0.503,0.576c0,0.327-0.267,0.594-0.594,0.594c-0.328,0-0.595-0.267-0.595-0.594   c0-0.296,0.22-0.53,0.503-0.576c0.031-0.005,0.06-0.019,0.092-0.019S58.389,71.701,58.42,71.706z"></path><path d="M49.744,49.888V48.41l1.186-1.185l1.636,1.636l1.216,1.216l0.064,0.027h7.144l4.197,4.198l0.064,0.026h4.448   c0.047,0.383,0.362,0.685,0.758,0.685c0.428,0,0.776-0.348,0.776-0.775c0-0.429-0.349-0.776-0.776-0.776   c-0.396,0-0.71,0.301-0.758,0.685h-4.411l-4.197-4.197l-0.064-0.027h-7.144l-1.188-1.189l-0.995-0.995h9.763l3.696,3.697   l0.063,0.026h4.478c0.047,0.382,0.362,0.685,0.758,0.685c0.428,0,0.776-0.349,0.776-0.775c0-0.428-0.349-0.777-0.776-0.777   c-0.396,0-0.71,0.302-0.758,0.685H65.26l-3.54-3.541h7.665c0.047,0.383,0.362,0.685,0.758,0.685c0.428,0,0.776-0.348,0.776-0.776   c0-0.428-0.349-0.776-0.776-0.776c-0.396,0-0.711,0.302-0.758,0.686h-6.811l2.618-2.618h3.839c0.047,0.383,0.361,0.685,0.758,0.685   c0.428,0,0.775-0.348,0.775-0.776c0-0.428-0.348-0.776-0.775-0.776c-0.396,0-0.711,0.302-0.758,0.685h-3.877l-0.064,0.027   l-2.773,2.773H61.5h-2.013l5.705-5.705h3.212c0.047,0.383,0.362,0.686,0.758,0.686c0.428,0,0.776-0.349,0.776-0.776   s-0.349-0.776-0.776-0.776c-0.396,0-0.711,0.302-0.758,0.685h-3.25l-0.064,0.027l-5.86,5.86h-3.246l9.209-9.208h2.271   c0.047,0.383,0.362,0.685,0.758,0.685c0.428,0,0.776-0.349,0.776-0.776s-0.349-0.776-0.776-0.776c-0.396,0-0.711,0.302-0.758,0.686   h-2.309L65.09,38.19l-9.363,9.364h-2.386l11.899-11.9h1.324c0.047,0.383,0.362,0.685,0.758,0.685c0.428,0,0.776-0.349,0.776-0.776   s-0.349-0.776-0.776-0.776c-0.396,0-0.711,0.302-0.758,0.685h-1.361l-0.064,0.027L53.114,47.523v0.031h-1.597l-0.46-0.459   l7.406-7.405c0.743,0.484,1.748,0.401,2.4-0.252c0.749-0.749,0.749-1.964,0-2.713s-1.964-0.749-2.713,0   c-0.67,0.669-0.737,1.708-0.21,2.456l-8.198,8.198v-3.465l11.414-11.413h4.159c0.047,0.383,0.362,0.685,0.758,0.685   c0.428,0,0.776-0.349,0.776-0.776s-0.349-0.776-0.776-0.776c-0.396,0-0.711,0.302-0.758,0.686h-4.197l-0.064,0.026L49.744,43.657   v-2.95l11.414-11.413h2.648c0.047,0.383,0.361,0.685,0.757,0.685c0.429,0,0.776-0.348,0.776-0.776c0-0.428-0.348-0.776-0.776-0.776   c-0.396,0-0.71,0.302-0.757,0.685h-2.687l-0.064,0.027L49.744,40.45v-2.195V38.08v-0.741l11.414-11.413h0.778   c0.047,0.383,0.362,0.686,0.758,0.686c0.428,0,0.775-0.349,0.775-0.776s-0.348-0.776-0.775-0.776c-0.396,0-0.711,0.302-0.758,0.685   h-0.816l-0.064,0.027l-11.311,11.31V33.93l7.057-6.965c0.743,0.511,1.766,0.441,2.431-0.215c0.754-0.744,0.762-1.959,0.018-2.713   c-0.744-0.754-1.959-0.762-2.713-0.018c-0.665,0.656-0.748,1.679-0.247,2.428l-7.166,7.072c-0.069,0.068-0.109,0.162-0.109,0.259   V37.2l-0.932-0.932v-3.168l1.472-1.472V31.59l0.027-0.027V29.6l8.78-8.781c0.305,0.238,0.741,0.229,1.021-0.051   c0.303-0.303,0.303-0.795,0-1.098c-0.302-0.303-0.795-0.303-1.098,0c-0.28,0.28-0.289,0.716-0.052,1.02l-8.651,8.653v-4.469   l6.766-6.767c0.303,0.237,0.738,0.229,1.019-0.05c-0.075,0.075-0.148,0.149,0.002-0.001c0.149-0.15,0.076-0.077,0.001-0.001   c0.301-0.303,0.301-0.794-0.001-1.096c-0.303-0.303-0.796-0.303-1.098,0c-0.279,0.28-0.289,0.715-0.052,1.02l-6.637,6.638v-4.5   l4.738-4.737c0.305,0.237,0.74,0.229,1.021-0.051c0.303-0.303,0.303-0.795,0-1.098c-0.303-0.302-0.795-0.303-1.098,0   c-0.28,0.28-0.289,0.716-0.052,1.021l-4.609,4.608v-5.571l2.253-2.252c0.304,0.237,0.739,0.229,1.02-0.05   c-0.075,0.075-0.149,0.15,0.001-0.001c0,0,0-0.001,0.001-0.001c0.301-0.303,0.302-0.795-0.001-1.097s-0.795-0.303-1.098,0   c-0.28,0.28-0.289,0.716-0.052,1.021l-2.125,2.124V8.986c0.383-0.047,0.685-0.362,0.685-0.758c0-0.428-0.349-0.776-0.776-0.776   S48.714,7.8,48.714,8.228c0,0.396,0.302,0.711,0.686,0.758v5.056l-2.354-2.163c0.225-0.314,0.197-0.75-0.094-1.017   c-0.315-0.29-0.808-0.269-1.097,0.046c-0.29,0.315-0.269,0.808,0.046,1.097c0.292,0.268,0.728,0.259,1.022,0.008l2.477,2.276v5.56   l-4.348-4.584c0.245-0.298,0.248-0.734-0.024-1.021c-0.294-0.31-0.787-0.323-1.098-0.029C43.62,14.508,43.606,15,43.9,15.311   c-0.074-0.078-0.146-0.154,0,0.001c0.146,0.154,0.074,0.078,0.001,0c0.272,0.286,0.708,0.307,1.018,0.078l4.48,4.723v4.496   l-6.362-6.619c0.243-0.299,0.243-0.735-0.031-1.021c-0.297-0.309-0.789-0.319-1.098-0.022c-0.309,0.296-0.318,0.789-0.021,1.097   c0.274,0.285,0.71,0.303,1.019,0.072l6.493,6.756v4.464l-8.364-8.638c0.242-0.3,0.24-0.736-0.035-1.021   c-0.298-0.308-0.79-0.315-1.098-0.018s-0.315,0.79-0.018,1.098c0.275,0.284,0.711,0.3,1.019,0.068l8.495,8.773v1.926l-1.408,1.408   l-9.025-9.025c0.238-0.304,0.229-0.74-0.051-1.02c-0.303-0.303-0.795-0.303-1.098,0c-0.303,0.303-0.303,0.795,0,1.098   c0.279,0.28,0.716,0.289,1.02,0.051l9.063,9.062v2.986l-5.54-5.541c0.505-0.746,0.429-1.769-0.232-2.429   c-0.749-0.75-1.963-0.75-2.713,0c-0.749,0.749-0.749,1.963,0,2.713c0.661,0.661,1.683,0.737,2.43,0.231l7.17,7.171v0.024v4.086   L37.889,31.215v-4.228l-0.031-0.068l-0.41-0.364c0.219-0.318,0.184-0.753-0.112-1.016c-0.32-0.284-0.812-0.255-1.096,0.065   c-0.284,0.32-0.255,0.812,0.065,1.096c0.296,0.263,0.732,0.246,1.021-0.009l0.379,0.337v3.998l-1.73-1.73   c0.237-0.304,0.228-0.741-0.051-1.021c-0.303-0.302-0.795-0.302-1.098,0c-0.303,0.303-0.303,0.795,0,1.098   c0.279,0.28,0.716,0.289,1.02,0.051l1.87,1.87h0.007l0.01,0.024l1.002,1.002h-0.954h-3.395c-0.047-0.383-0.362-0.686-0.758-0.686   c-0.428,0-0.776,0.349-0.776,0.776s0.349,0.776,0.776,0.776c0.396,0,0.71-0.302,0.758-0.685h3.395h1.136l10.097,10.097v4.069   L37.846,35.499l-0.064-0.027h-4.767c-0.047-0.383-0.362-0.685-0.758-0.685c-0.428,0-0.776,0.349-0.776,0.776   s0.348,0.776,0.776,0.776c0.396,0,0.71-0.302,0.758-0.685h4.729l11.271,11.271v1.333v1.379l-2.141-2.141   c-0.068-0.068-0.162-0.107-0.258-0.107h-2.533l-6.277-6.277c0.505-0.747,0.429-1.769-0.232-2.429c-0.749-0.75-1.964-0.75-2.713,0   c-0.749,0.749-0.749,1.964,0,2.713c0.661,0.661,1.683,0.737,2.429,0.231l6.385,6.385c0.068,0.068,0.161,0.106,0.257,0.106h2.533   l2.55,2.55v6.434l-15.41-15.409l-0.064-0.027h-2.71c-0.047-0.383-0.362-0.685-0.758-0.685c-0.428,0-0.776,0.349-0.776,0.776   s0.349,0.776,0.776,0.776c0.396,0,0.711-0.302,0.758-0.686h2.673l7.114,7.114h-2.83l-4.182-4.182l-0.064-0.027h-3.501   c-0.047-0.383-0.362-0.685-0.757-0.685c-0.428,0-0.776,0.348-0.776,0.776c0,0.428,0.348,0.776,0.776,0.776   c0.396,0,0.71-0.302,0.757-0.685h3.464l4.182,4.182l0.064,0.027h3.05l1.892,1.892h-5.572l-3.513-3.514l-0.064-0.026h-4.086   c-0.047-0.383-0.362-0.686-0.758-0.686c-0.428,0-0.776,0.349-0.776,0.776s0.349,0.776,0.776,0.776c0.396,0,0.71-0.302,0.758-0.685   h4.049l3.348,3.348h-7.618c-0.047-0.383-0.362-0.685-0.758-0.685c-0.428,0-0.776,0.349-0.776,0.776   c0,0.429,0.349,0.777,0.776,0.777c0.396,0,0.71-0.302,0.758-0.686h7.637l-3.367,3.367h-4.104c-0.047-0.383-0.362-0.685-0.757-0.685   c-0.428,0-0.776,0.349-0.776,0.776s0.348,0.776,0.776,0.776c0.396,0,0.71-0.303,0.757-0.686h4.142l0.064-0.026l3.514-3.515h5.753   l2.383,2.383h-7.408l-0.064,0.026l-4.28,4.279h-3.661c-0.048-0.383-0.363-0.685-0.758-0.685c-0.428,0-0.776,0.349-0.776,0.776   s0.349,0.776,0.776,0.776c0.396,0,0.711-0.303,0.758-0.686h3.698l0.064-0.026l4.28-4.28h7.552l3.129,3.129H37.847l-0.064,0.026   l-4.28,4.279H30.83c-0.047-0.383-0.362-0.686-0.758-0.686c-0.428,0-0.776,0.349-0.776,0.776s0.349,0.776,0.776,0.776   c0.395,0,0.71-0.302,0.758-0.685h2.71l0.064-0.027l4.124-4.123v3.373l-4.217,4.217h-0.842c-0.047-0.383-0.362-0.686-0.758-0.686   c-0.428,0-0.776,0.349-0.776,0.776s0.348,0.776,0.776,0.776c0.396,0,0.711-0.303,0.758-0.686h0.879l0.064-0.026l4.271-4.27   l0.027-0.064v-3.567h3.905l-4.087,4.087l-0.026,0.064v3.231l-2.876,2.876c-0.304-0.237-0.741-0.229-1.021,0.052   c-0.302,0.303-0.302,0.795,0,1.098c0.303,0.303,0.795,0.303,1.098,0c0.28-0.28,0.289-0.716,0.051-1.021l2.903-2.902l0.027-0.064   v-3.232l1.998-1.998v8.711L38,69.877c-0.304-0.237-0.741-0.229-1.02,0.052c-0.303,0.303-0.303,0.795,0,1.098   c0.302,0.303,0.795,0.303,1.098,0c0.28-0.28,0.289-0.716,0.051-1.021l1.908-1.908l0.026-0.064v-4.762l2.103,2.104v4.849   l-1.194,1.193c-0.304-0.237-0.74-0.229-1.021,0.052c-0.302,0.302-0.303,0.794,0,1.097s0.795,0.304,1.098,0   c0.28-0.279,0.29-0.715,0.052-1.02l1.221-1.221l0.027-0.064v-4.924l-0.027-0.064l-2.258-2.259v-3.911l2.009-2.009h6.674   l0.268,0.268v0.447c0,0.201,0.163,0.363,0.364,0.363c0.202,0,0.364-0.162,0.364-0.363v-4.395h0.712l10.051,10.051v6.98   c-0.383,0.047-0.686,0.362-0.686,0.758c0,0.429,0.349,0.776,0.776,0.776s0.776-0.348,0.776-0.776c0-0.396-0.303-0.711-0.686-0.758   v-6.799l2.085,2.085v3.47c-0.383,0.047-0.686,0.362-0.686,0.758c0,0.428,0.349,0.776,0.776,0.776s0.776-0.349,0.776-0.776   c0-0.396-0.303-0.711-0.686-0.758v-3.288l1.6,1.6c-0.237,0.305-0.229,0.74,0.052,1.021c0.303,0.303,0.795,0.303,1.098,0   s0.303-0.795,0-1.098c-0.28-0.28-0.716-0.289-1.021-0.052l-13.97-13.97h2.428l11.987,11.987l0.064,0.027h1.521   c0.048,0.383,0.362,0.685,0.758,0.685c0.428,0,0.776-0.349,0.776-0.776s-0.349-0.776-0.776-0.776c-0.396,0-0.711,0.303-0.758,0.686   H65.23L53.398,53.414h2.392l9.325,9.324l0.064,0.027h2.963c0.048,0.384,0.362,0.685,0.758,0.685c0.428,0,0.776-0.348,0.776-0.776   c0-0.428-0.349-0.776-0.776-0.776c-0.396,0-0.711,0.303-0.758,0.686h-2.926l-9.168-9.169h2.326l6.818,6.675l0.063,0.026h3.774   c0.047,0.383,0.361,0.685,0.758,0.685c0.428,0,0.775-0.348,0.775-0.775c0-0.429-0.348-0.776-0.775-0.776   c-0.396,0-0.711,0.301-0.758,0.685h-3.737l-6.658-6.519h2.561l3.954,3.954l0.064,0.026h4.313c0.047,0.383,0.362,0.686,0.758,0.686   c0.428,0,0.776-0.349,0.776-0.776s-0.349-0.776-0.776-0.776c-0.396,0-0.711,0.303-0.758,0.686h-4.275l-3.954-3.954l-0.064-0.026   H49.743v-3.342C49.743,49.89,49.744,49.889,49.744,49.888z M69.882,54.145c0.046-0.283,0.28-0.503,0.575-0.503   c0.328,0,0.594,0.267,0.594,0.595c0,0.327-0.266,0.594-0.594,0.594c-0.295,0-0.53-0.221-0.575-0.503   c-0.005-0.031-0.019-0.059-0.019-0.091S69.877,54.176,69.882,54.145z M69.882,51.277c0.046-0.283,0.28-0.503,0.575-0.503   c0.328,0,0.594,0.267,0.594,0.595c0,0.327-0.266,0.594-0.594,0.594c-0.295,0-0.53-0.221-0.575-0.503   c-0.005-0.031-0.019-0.059-0.019-0.091S69.877,51.309,69.882,51.277z M69.567,47.555c0.045-0.282,0.28-0.503,0.575-0.503   c0.327,0,0.594,0.267,0.594,0.594c0,0.328-0.267,0.594-0.594,0.594c-0.295,0-0.529-0.22-0.575-0.503   c-0.005-0.031-0.019-0.059-0.019-0.091S69.562,47.585,69.567,47.555z M69.213,44.755c0.045-0.282,0.28-0.503,0.576-0.503   c0.327,0,0.594,0.267,0.594,0.594c0,0.328-0.267,0.594-0.594,0.594c-0.296,0-0.53-0.22-0.576-0.503   c-0.005-0.031-0.019-0.059-0.019-0.091S69.208,44.786,69.213,44.755z M68.587,41.667c0.046-0.283,0.28-0.503,0.575-0.503   c0.327,0,0.595,0.267,0.595,0.594c0,0.327-0.268,0.594-0.595,0.594c-0.295,0-0.53-0.221-0.575-0.503   c-0.005-0.031-0.019-0.059-0.019-0.091S68.582,41.698,68.587,41.667z M67.645,38.164c0.045-0.283,0.28-0.503,0.576-0.503   c0.327,0,0.594,0.266,0.594,0.594s-0.267,0.594-0.594,0.594c-0.296,0-0.53-0.22-0.576-0.503c-0.005-0.031-0.019-0.059-0.019-0.091   S67.64,38.195,67.645,38.164z M66.747,35.472c0.046-0.283,0.279-0.503,0.575-0.503c0.327,0,0.594,0.267,0.594,0.594   s-0.267,0.594-0.594,0.594c-0.296,0-0.529-0.22-0.575-0.503c-0.005-0.031-0.019-0.059-0.019-0.091S66.742,35.503,66.747,35.472z    M65.499,32.32c0.045-0.282,0.28-0.503,0.575-0.503c0.327,0,0.594,0.267,0.594,0.594c0,0.328-0.267,0.594-0.594,0.594   c-0.295,0-0.529-0.22-0.575-0.503c-0.005-0.031-0.019-0.059-0.019-0.091S65.494,32.351,65.499,32.32z M63.987,29.113   c0.045-0.282,0.28-0.503,0.575-0.503c0.328,0,0.595,0.267,0.595,0.594c0,0.328-0.267,0.594-0.595,0.594   c-0.295,0-0.529-0.22-0.575-0.503c-0.005-0.031-0.019-0.059-0.019-0.091S63.982,29.144,63.987,29.113z M62.117,25.744   c0.046-0.283,0.28-0.503,0.576-0.503c0.327,0,0.594,0.267,0.594,0.594c0,0.327-0.267,0.594-0.594,0.594   c-0.296,0-0.531-0.221-0.576-0.503c-0.005-0.031-0.019-0.059-0.019-0.091S62.112,25.775,62.117,25.744z M58.413,19.798   c0.231-0.232,0.608-0.232,0.84,0c0.232,0.231,0.232,0.608,0,0.84c-0.209,0.209-0.53,0.219-0.763,0.051   c-0.025-0.018-0.055-0.028-0.077-0.051s-0.033-0.052-0.052-0.078C58.194,20.329,58.204,20.007,58.413,19.798z M56.398,17.087   C56.398,17.087,56.398,17.087,56.398,17.087c0.232-0.232,0.608-0.232,0.841,0c0.231,0.231,0.231,0.608,0,0.84   c-0.21,0.209-0.53,0.219-0.764,0.051c-0.025-0.018-0.055-0.028-0.077-0.051s-0.033-0.052-0.052-0.078   C56.18,17.618,56.19,17.296,56.398,17.087z M54.371,14.357c0.231-0.231,0.608-0.231,0.84,0c0.231,0.232,0.231,0.608,0,0.84   c-0.209,0.208-0.53,0.219-0.763,0.051c-0.025-0.018-0.055-0.028-0.077-0.051s-0.033-0.052-0.052-0.078   C54.151,14.888,54.161,14.566,54.371,14.357z M51.887,11.013c0.231-0.231,0.608-0.231,0.84,0c0.231,0.232,0.231,0.609,0,0.84   c-0.209,0.208-0.53,0.219-0.763,0.051c-0.025-0.018-0.055-0.028-0.077-0.051s-0.033-0.052-0.052-0.078   C51.668,11.543,51.678,11.222,51.887,11.013z M48.896,8.228c0-0.328,0.267-0.594,0.594-0.594c0.328,0,0.594,0.266,0.594,0.594   c0,0.296-0.22,0.53-0.503,0.576c-0.031,0.005-0.059,0.019-0.091,0.019s-0.06-0.014-0.091-0.019   C49.117,8.758,48.896,8.524,48.896,8.228z M46.911,11.756c-0.017,0.026-0.026,0.056-0.048,0.079   c-0.022,0.024-0.051,0.035-0.075,0.055c-0.225,0.178-0.547,0.181-0.764-0.019c-0.241-0.222-0.257-0.598-0.036-0.839   c0.222-0.242,0.598-0.258,0.839-0.036C47.045,11.196,47.069,11.517,46.911,11.756z M44.873,15.208   c-0.023,0.022-0.053,0.032-0.079,0.049c-0.236,0.162-0.558,0.143-0.761-0.071c-0.226-0.238-0.216-0.615,0.022-0.84   c0.238-0.226,0.614-0.215,0.839,0.021c0,0,0,0,0,0c0,0,0,0,0,0c0.203,0.214,0.204,0.536,0.031,0.763   C44.907,15.157,44.896,15.187,44.873,15.208z M42.911,17.858c-0.019,0.025-0.029,0.054-0.053,0.077s-0.053,0.032-0.079,0.05   c-0.235,0.163-0.557,0.146-0.761-0.066c-0.227-0.236-0.22-0.613,0.016-0.84c0.236-0.227,0.613-0.22,0.84,0.017   C43.08,17.308,43.083,17.63,42.911,17.858z M40.909,20.568c-0.019,0.025-0.029,0.054-0.053,0.077   c-0.023,0.022-0.053,0.032-0.078,0.05c-0.235,0.164-0.557,0.148-0.762-0.064c-0.228-0.235-0.222-0.612,0.014-0.84   c0.235-0.228,0.611-0.222,0.839,0.013c0,0,0,0,0,0c0,0,0,0,0,0C41.075,20.018,41.08,20.339,40.909,20.568z M38.837,23.779   c-0.018,0.025-0.028,0.055-0.051,0.078s-0.052,0.033-0.078,0.051c-0.232,0.168-0.554,0.158-0.762-0.051   c-0.232-0.231-0.232-0.608,0-0.84c0.231-0.232,0.608-0.232,0.84,0C38.995,23.225,39.005,23.547,38.837,23.779z M37.312,26.435   c-0.017,0.026-0.025,0.056-0.046,0.08s-0.05,0.036-0.074,0.056c-0.222,0.181-0.543,0.19-0.764-0.006   c-0.245-0.217-0.268-0.594-0.05-0.838c0.217-0.245,0.593-0.268,0.838-0.05C37.437,25.873,37.465,26.193,37.312,26.435z    M35.847,29.167c-0.018,0.025-0.028,0.055-0.051,0.078s-0.052,0.033-0.077,0.051c-0.232,0.167-0.554,0.157-0.763-0.051   c-0.232-0.232-0.232-0.608,0-0.84c0.231-0.231,0.606-0.231,0.839-0.001c0,0,0,0,0.001,0.001s0,0.001,0.001,0.001   C36.004,28.615,36.015,28.936,35.847,29.167z M34.204,32.502c-0.045,0.283-0.28,0.503-0.575,0.503   c-0.328,0-0.594-0.267-0.594-0.594c0-0.327,0.267-0.594,0.594-0.594c0.295,0,0.53,0.221,0.575,0.503   c0.005,0.031,0.019,0.059,0.019,0.091S34.208,32.471,34.204,32.502z M32.832,35.655c-0.045,0.283-0.28,0.503-0.576,0.503   c-0.327,0-0.594-0.267-0.594-0.594s0.267-0.594,0.594-0.594c0.295,0,0.53,0.22,0.576,0.503c0.005,0.031,0.019,0.059,0.019,0.091   S32.837,35.624,32.832,35.655z M30.647,41.85c-0.045,0.282-0.28,0.503-0.576,0.503c-0.327,0-0.594-0.267-0.594-0.594   c0-0.328,0.267-0.594,0.594-0.594c0.295,0,0.53,0.22,0.576,0.503c0.005,0.031,0.019,0.059,0.019,0.091S30.652,41.819,30.647,41.85z    M29.856,44.937c-0.045,0.283-0.28,0.503-0.575,0.503c-0.328,0-0.594-0.267-0.594-0.594c0-0.327,0.267-0.594,0.594-0.594   c0.295,0,0.53,0.221,0.575,0.503c0.005,0.031,0.019,0.059,0.019,0.091S29.861,44.906,29.856,44.937z M29.271,47.679   c-0.045,0.283-0.28,0.503-0.576,0.503c-0.327,0-0.594-0.267-0.594-0.594c0-0.327,0.267-0.594,0.594-0.594   c0.295,0,0.53,0.221,0.576,0.503c0.005,0.031,0.019,0.059,0.019,0.091S29.276,47.648,29.271,47.679z M29.05,51.21   c-0.046,0.283-0.281,0.503-0.576,0.503c-0.328,0-0.594-0.267-0.594-0.595c0-0.327,0.267-0.593,0.594-0.593   c0.295,0,0.53,0.22,0.576,0.502c0.005,0.031,0.019,0.059,0.019,0.091S29.055,51.179,29.05,51.21z M29.216,54.76   c-0.045,0.282-0.28,0.503-0.575,0.503c-0.328,0-0.594-0.267-0.594-0.594c0-0.328,0.267-0.594,0.594-0.594   c0.295,0,0.529,0.22,0.575,0.502c0.005,0.031,0.019,0.06,0.019,0.092S29.221,54.729,29.216,54.76z M29.659,58.09   c-0.045,0.282-0.28,0.503-0.575,0.503c-0.328,0-0.594-0.267-0.594-0.594s0.267-0.595,0.594-0.595c0.294,0,0.529,0.221,0.575,0.503   c0.005,0.031,0.019,0.06,0.019,0.092S29.664,58.059,29.659,58.09z M30.647,61.4c-0.046,0.282-0.281,0.503-0.576,0.503   c-0.327,0-0.594-0.268-0.594-0.595s0.267-0.594,0.594-0.594c0.295,0,0.53,0.221,0.576,0.503c0.005,0.031,0.019,0.059,0.019,0.091   S30.652,61.369,30.647,61.4z M32.487,65.021c-0.045,0.283-0.28,0.503-0.576,0.503c-0.327,0-0.594-0.266-0.594-0.594   c0-0.327,0.267-0.594,0.594-0.594c0.295,0,0.53,0.221,0.576,0.503c0.005,0.031,0.019,0.059,0.019,0.091S32.492,64.99,32.487,65.021   z M34.773,68.373c-0.231,0.231-0.608,0.231-0.84,0c-0.231-0.231-0.231-0.607,0-0.839c0-0.001,0-0.001,0.001-0.001   c0.209-0.208,0.53-0.219,0.762-0.052c0.025,0.019,0.055,0.029,0.078,0.052s0.033,0.052,0.052,0.077   C34.993,67.843,34.982,68.164,34.773,68.373z M37.949,70.897c-0.231,0.231-0.608,0.231-0.84,0c-0.232-0.231-0.232-0.608,0-0.84   c0.208-0.209,0.53-0.219,0.762-0.052c0.025,0.019,0.055,0.029,0.078,0.052s0.033,0.052,0.051,0.077   C38.168,70.367,38.158,70.688,37.949,70.897z M40.921,72.438c-0.231,0.231-0.608,0.231-0.84,0c-0.231-0.232-0.231-0.609,0-0.84   c0-0.001,0-0.001,0.001-0.001c0.209-0.209,0.531-0.219,0.763-0.051c0.025,0.018,0.054,0.028,0.077,0.051   c0.023,0.023,0.033,0.053,0.052,0.078C41.14,71.907,41.13,72.229,40.921,72.438z M64.683,67.642   c0.019-0.025,0.029-0.055,0.052-0.077s0.052-0.033,0.077-0.052c0.232-0.167,0.554-0.157,0.763,0.052   c0.232,0.231,0.232,0.608,0,0.84c-0.231,0.232-0.608,0.232-0.84,0C64.525,68.195,64.516,67.874,64.683,67.642z M62.954,69.384   c0.282,0.045,0.503,0.28,0.503,0.575c0,0.327-0.267,0.595-0.594,0.595c-0.328,0-0.594-0.268-0.594-0.595   c0-0.295,0.22-0.53,0.503-0.575c0.031-0.005,0.059-0.019,0.091-0.019S62.923,69.379,62.954,69.384z M60.688,70.628   c0.282,0.045,0.503,0.28,0.503,0.575c0,0.328-0.267,0.595-0.594,0.595s-0.595-0.267-0.595-0.595c0-0.295,0.222-0.53,0.504-0.575   c0.031-0.005,0.059-0.019,0.091-0.019S60.656,70.623,60.688,70.628z M66.896,65.246c0.045-0.282,0.28-0.503,0.575-0.503   c0.327,0,0.594,0.267,0.594,0.594c0,0.328-0.267,0.595-0.594,0.595c-0.295,0-0.529-0.22-0.575-0.503   c-0.005-0.031-0.019-0.06-0.019-0.092S66.891,65.277,66.896,65.246z M68.325,62.583c0.045-0.282,0.28-0.503,0.575-0.503   c0.327,0,0.594,0.267,0.594,0.594c0,0.328-0.267,0.595-0.594,0.595c-0.295,0-0.529-0.22-0.575-0.503   c-0.005-0.031-0.019-0.06-0.019-0.092S68.32,62.614,68.325,62.583z M69.213,59.933c0.046-0.283,0.28-0.503,0.576-0.503   c0.327,0,0.594,0.267,0.594,0.595c0,0.327-0.267,0.594-0.594,0.594c-0.296,0-0.531-0.221-0.576-0.503   c-0.005-0.031-0.019-0.059-0.019-0.091S69.208,59.964,69.213,59.933z M69.711,57.213c0.045-0.282,0.28-0.503,0.575-0.503   c0.328,0,0.594,0.267,0.594,0.594c0,0.328-0.266,0.595-0.594,0.595c-0.295,0-0.53-0.221-0.575-0.504   c-0.005-0.031-0.019-0.059-0.019-0.091S69.706,57.244,69.711,57.213z"></path><path d="M45.918,12.021C45.985,12.083,46.031,12.125,45.918,12.021L45.918,12.021z"></path><path d="M41.887,18.044C41.59,17.736,42.184,18.353,41.887,18.044L41.887,18.044z"></path><path d="M39.885,20.758C39.736,20.604,39.811,20.682,39.885,20.758L39.885,20.758z"></path><path d="M59.382,20.767C59.08,21.07,59.685,20.464,59.382,20.767L59.382,20.767z"></path><path d="M37.817,23.985C37.514,23.683,38.119,24.288,37.817,23.985L37.817,23.985z"></path><path d="M36.306,26.701C35.985,26.417,36.625,26.985,36.306,26.701L36.306,26.701z"></path><path d="M34.827,29.373C34.524,29.071,35.129,29.676,34.827,29.373L34.827,29.373z"></path><path d="M31.219,39.031c0.396,0,0.71-0.302,0.758-0.685h1.563l0.091-0.091l-0.091-0.091h-1.563   c-0.047-0.383-0.362-0.686-0.758-0.686c-0.428,0-0.776,0.349-0.776,0.776S30.791,39.031,31.219,39.031z M31.219,37.661   c0.295,0,0.53,0.22,0.576,0.503c0.005,0.031,0.019,0.059,0.019,0.091s-0.014,0.061-0.019,0.091   c-0.045,0.283-0.28,0.503-0.576,0.503c-0.328,0-0.594-0.267-0.594-0.594S30.891,37.661,31.219,37.661z"></path><path d="M34.902,68.502C34.6,68.805,35.205,68.199,34.902,68.502L34.902,68.502z"></path><path d="M41.05,72.565C40.747,72.869,41.353,72.264,41.05,72.565L41.05,72.565z"></path></g></svg></g><defs id="SvgjsDefs1072"></defs></svg></g><g id="SvgjsG1075" transform="rotate(0 136.6750030517578 41.991668701171875)"><svg xmlns="http://www.w3.org/2000/svg" xmlns:xlink="http://www.w3.org/1999/xlink" width="158.61666870117188" viewBox="1.3203125 6.01953125 158.609375 27.5" overflow="visible" style="overflow: visible;" transform="" version="1.1" xmlns:svgjs="http://svgjs.com/svgjs" preserveAspectRatio="none" height="27.916656494140625" x="57.366668701171875" y="28.033340454101562" fill="#000000" stroke="none"><path stroke="none" fill="#275e00" d="M17.39 14.09L17.39 14.09L17.39 14.09Q17.39 10.31 17.11 9.28L17.11 9.28L17.11 9.28Q16.83 8.25 16.25 7.62L16.25 7.62L16.25 7.62Q15.67 7.00 15.67 6.72L15.67 6.72L15.67 6.72Q15.67 6.34 18.05 6.34L18.05 6.34L18.05 6.34Q20.43 6.34 20.83 6.56L20.83 6.56L20.83 6.56Q21.23 6.78 21.23 7.25L21.23 7.25L21.23 7.25Q21.23 7.49 20.36 8.03L20.36 8.03L20.36 8.03Q19.50 8.57 19.29 9.26L19.29 9.26L19.29 9.26Q19.09 9.95 19.09 15.08L19.09 15.08L19.09 15.08Q19.09 20.21 18.93 21.39L18.93 21.39L18.93 21.39Q18.76 22.56 18.02 23.83L18.02 23.83L18.02 23.83Q17.29 25.09 15.70 25.98L15.70 25.98L15.70 25.98Q14.11 26.87 11.92 26.87L11.92 26.87L11.29 26.87L11.29 26.87Q6.71 26.87 4.70 24.11L4.70 24.11L4.70 24.11Q3.87 22.98 3.65 21.76L3.65 21.76L3.65 21.76Q3.43 20.54 3.43 15.12L3.43 15.12L3.43 15.12Q3.43 9.71 3.11 8.75L3.11 8.75L3.11 8.75Q2.94 8.25 2.12 7.84L2.12 7.84L2.12 7.84Q1.32 7.43 1.32 6.97L1.32 6.97L1.32 6.97Q1.32 6.31 3.97 6.31L3.97 6.31L5.65 6.31L5.65 6.31Q8.09 6.31 8.09 6.91L8.09 6.91L8.09 6.91Q8.09 7.05 7.43 7.65L7.43 7.65L7.43 7.65Q6.77 8.25 6.62 9.10L6.62 9.10L6.62 9.10Q6.49 9.84 6.49 13.86L6.49 13.86L6.49 13.86Q6.49 14.25 6.49 14.69L6.49 14.69L6.49 14.69Q6.49 15.06 6.49 15.41L6.49 15.41L6.49 15.41Q6.49 19.56 6.65 20.71L6.65 20.71L6.65 20.71Q7.27 25.27 12.23 25.27L12.23 25.27L12.23 25.27Q15.38 25.27 16.73 22.24L16.73 22.24L16.73 22.24Q17.39 20.76 17.39 14.37L17.39 14.37L17.39 14.37Q17.39 14.24 17.39 14.09ZM44.62 6.91L44.62 6.91L44.62 6.91Q45.22 6.53 47.00 6.53L47.00 6.53L47.00 6.53Q48.77 6.53 48.77 7.28L48.77 7.28L48.45 7.68L48.45 7.68Q47.79 8.42 47.64 8.69L47.64 8.69L47.64 8.69Q47.22 9.49 47.22 11.02L47.22 11.02L47.22 11.02Q47.22 21.05 47.70 23.54L47.70 23.54L47.70 23.54Q47.86 24.36 48.36 24.81L48.36 24.81L48.36 24.81Q49.47 25.81 49.47 25.90L49.47 25.90L49.16 26.10L49.16 26.10Q48.37 26.46 46.29 26.46L46.29 26.46L46.29 26.46Q44.21 26.46 43.79 25.94L43.79 25.94L43.67 25.63L43.79 25.24L43.79 25.24Q43.98 24.61 44.27 23.58L44.27 23.58L44.27 23.58Q44.56 22.56 44.56 21.01L44.56 21.01L44.56 21.01Q44.56 12.39 44.07 11.10L44.07 11.10L43.91 10.96L43.91 10.96Q43.71 10.96 41.24 16.55L41.24 16.55L39.09 21.55L39.09 21.55Q38.59 22.75 38.38 23.19L38.38 23.19L38.00 23.99L38.00 23.99Q37.23 25.52 36.57 25.52L36.57 25.52L36.57 25.52Q36.02 25.52 35.20 23.80L35.20 23.80L35.20 23.80Q34.97 23.31 32.47 17.19L32.47 17.19L32.47 17.19Q29.97 11.07 29.52 11.07L29.52 11.07L29.34 11.28L29.34 11.28Q28.88 12.38 28.88 20.60L28.88 20.60L28.88 20.60Q28.88 21.97 29.31 23.88L29.31 23.88L29.31 23.88Q29.74 25.78 29.74 25.81L29.74 25.81L29.52 26.07L29.52 26.07Q29.01 26.48 27.59 26.48L27.59 26.48L27.59 26.48Q26.17 26.48 25.62 26.32L25.62 26.32L25.62 26.32Q25.07 26.15 25.07 25.69L25.07 25.69L25.07 25.69Q25.07 25.58 25.92 24.91L25.92 24.91L25.92 24.91Q26.78 24.24 26.96 23.09L26.96 23.09L27.04 22.25L27.04 22.25Q27.09 21.69 27.16 20.51L27.16 20.51L27.26 18.74L27.26 18.74Q27.56 14.22 27.56 12.03L27.56 12.03L27.56 12.03Q27.56 9.83 27.18 9.02L27.18 9.02L27.18 9.02Q27.02 8.69 26.35 8.01L26.35 8.01L26.35 8.01Q25.68 7.32 25.68 7.15L25.68 7.15L25.68 7.15Q25.68 6.58 28.03 6.58L28.03 6.58L28.03 6.58Q29.48 6.58 30.25 7.16L30.25 7.16L30.25 7.16Q30.62 7.44 31.37 8.57L31.37 8.57L31.37 8.57Q32.11 9.70 34.08 14.29L34.08 14.29L34.08 14.29Q36.04 18.88 36.32 19.53L36.32 19.53L36.67 20.30L37.05 20.80L37.05 20.80Q37.39 20.80 40.20 14.86L40.20 14.86L40.20 14.86Q43.01 8.92 43.51 8.10L43.51 8.10L43.51 8.10Q44.01 7.28 44.62 6.91ZM54.87 19.66L54.37 19.66L54.37 19.66Q53.81 19.66 53.81 19.00L53.81 19.00L53.81 18.78L53.83 18.68L53.83 18.68Q53.83 17.87 54.28 17.76L54.28 17.76L54.28 17.76Q54.73 17.65 58.43 17.65L58.43 17.65L61.44 17.58L61.84 17.58L61.84 17.58Q62.50 17.58 62.50 18.24L62.50 18.24L62.50 18.44L62.48 18.56L62.48 18.56Q62.48 19.35 62 19.47L62 19.47L62 19.47Q61.52 19.58 57.88 19.58L57.88 19.58L57.78 19.60L57.36 19.60L57.15 19.61L56.62 19.61L56.42 19.63L55.89 19.63L55.69 19.64L55.17 19.64L54.87 19.66ZM73.34 19.94L73.34 19.94L73.34 19.94Q71.44 19.94 70.25 20.86L70.25 20.86L70.25 20.86Q69.06 21.78 69.06 22.87L69.06 22.87L69.06 23.36L69.06 23.36Q69.09 23.54 69.09 23.66L69.09 23.66L69.09 23.66Q69.09 24.36 69.72 24.84L69.72 24.84L69.72 24.84Q70.34 25.33 70.95 25.33L70.95 25.33L71.42 25.33L71.42 25.33Q72.39 25.33 73.61 24.48L73.61 24.48L73.61 24.48Q74.48 23.86 74.48 22.92L74.48 22.92L74.48 22.92Q74.51 22.75 74.51 22.66L74.51 22.66L74.54 22.28L74.54 21.83L74.56 21.55L74.56 20.54L74.56 20.54Q74.56 19.89 74.18 19.89L74.18 19.89L73.81 19.89L73.81 19.89Q73.55 19.94 73.34 19.94ZM72.10 12.44L72.10 12.44L72.46 12.44L72.46 12.44Q75.52 12.44 76.65 14.30L76.65 14.30L76.65 14.30Q77.34 15.44 77.34 19.60L77.34 19.60L77.34 19.60Q77.34 23.76 77.46 24.16L77.46 24.16L77.46 24.16Q77.65 24.81 78.29 25.03L78.29 25.03L78.29 25.03Q79.35 25.40 79.35 25.53L79.35 25.53L79.35 25.75L79.35 25.75Q79.35 26.04 78.67 26.44L78.67 26.44L78.67 26.44Q78 26.84 76.68 26.84L76.68 26.84L76.68 26.84Q75.92 26.84 75.30 26.17L75.30 26.17L75.30 26.17Q74.69 25.50 74.50 25.50L74.50 25.50L74.50 25.50Q74.48 25.50 72.87 26.25L72.87 26.25L72.87 26.25Q71.26 27.00 70.34 27.00L70.34 27.00L69.65 27.00L69.65 27.00Q68.24 27.00 67.28 26.01L67.28 26.01L67.28 26.01Q66.33 25.02 66.33 23.86L66.33 23.86L66.33 23.50L66.33 23.50Q66.33 21.65 67.72 20.54L67.72 20.54L67.72 20.54Q68.67 19.78 70.46 19.28L70.46 19.28L70.46 19.28Q70.66 19.22 72.07 18.92L72.07 18.92L72.07 18.92Q73.47 18.62 73.78 18.47L73.78 18.47L73.78 18.47Q74.59 18.08 74.59 16.75L74.59 16.75L74.59 16.75Q74.59 15.42 73.87 14.66L73.87 14.66L73.87 14.66Q73.15 13.89 71.91 13.89L71.91 13.89L71.91 13.89Q70.66 13.89 69.74 15.25L69.74 15.25L69.74 15.25Q68.82 16.61 67.82 16.61L67.82 16.61L67.82 16.61Q67.60 16.61 67.26 16.29L67.26 16.29L67.26 16.29Q66.93 15.97 66.93 15.28L66.93 15.28L66.93 15.28Q66.93 14.21 68.07 13.54L68.07 13.54L68.07 13.54Q69.93 12.44 72.10 12.44ZM91.48 17.81L91.47 17.68L91.44 17.08L91.44 17.08Q91.44 15.51 90.47 14.22L90.47 14.22L90.47 14.22Q89.78 13.30 88.81 13.30L88.81 13.30L88.32 13.30L88.32 13.30Q87.42 13.30 86.64 14.34L86.64 14.34L86.64 14.34Q85.86 15.38 85.86 16.93L85.86 16.93L85.86 17.58L85.87 17.71L85.87 17.71Q85.87 19.06 86.49 20.03L86.49 20.03L86.49 20.03Q87.12 21.01 88.46 21.01L88.46 21.01L88.81 21.01L88.81 21.01Q89.85 21.01 90.65 20.28L90.65 20.28L90.65 20.28Q91.44 19.56 91.44 18.49L91.44 18.49L91.45 18.38L91.47 18.27L91.48 17.81ZM87.58 26.29L87.33 26.29L87.33 26.29Q86.21 26.29 85.61 26.85L85.61 26.85L85.61 26.85Q84.64 27.74 84.64 28.86L84.64 28.86L84.64 29.12L84.65 29.24L84.65 29.24Q84.65 30.35 85.70 31.16L85.70 31.16L85.70 31.16Q86.75 31.96 88.43 31.96L88.43 31.96L89.24 31.96L89.24 31.96Q89.53 31.93 89.65 31.93L89.65 31.93L89.65 31.93Q91.38 31.93 92.56 30.93L92.56 30.93L92.56 30.93Q93.75 29.93 93.75 28.77L93.75 28.77L93.75 28.65L93.75 28.65Q93.75 27.69 92.96 27.09L92.96 27.09L92.96 27.09Q92.17 26.50 90.87 26.50L90.87 26.50L90.87 26.50Q90.34 26.44 90.07 26.44L90.07 26.44L89.81 26.41L88.23 26.32L88.10 26.31L87.58 26.29ZM90.16 12.48L90.16 12.48Q90.57 12.50 90.78 12.50L90.78 12.50L90.78 12.50Q90.98 12.50 92.15 12.54L92.15 12.54L92.54 12.55L93.27 12.60L93.27 12.60Q93.52 12.60 94.04 12.57L94.04 12.57L94.81 12.52L94.81 12.52Q96.29 12.52 96.29 13.15L96.29 13.15L96.29 13.15Q96.29 13.99 95.12 14.14L95.12 14.14L95.12 14.14Q93.96 14.30 93.96 14.93L93.96 14.93L94.03 15.25L94.25 16.01L94.25 16.01Q94.41 16.68 94.41 17.58L94.41 17.58L94.41 17.58Q94.41 18.41 93.93 19.32L93.93 19.32L93.93 19.32Q92.56 21.94 88.62 22.12L88.62 22.12L88.62 22.12Q86.97 22.21 86.60 22.38L86.60 22.38L86.60 22.38Q85.91 22.73 85.91 23.45L85.91 23.45L85.91 23.45Q85.91 24.17 87.20 24.45L87.20 24.45L87.20 24.45Q87.55 24.54 90.21 24.71L90.21 24.71L90.21 24.71Q92.84 24.89 93.90 25.36L93.90 25.36L93.90 25.36Q95.89 26.26 95.89 28.47L95.89 28.47L95.89 28.47Q95.89 30.67 93.81 32.09L93.81 32.09L93.81 32.09Q91.70 33.52 88.83 33.52L88.83 33.52L88.83 33.52Q84.65 33.52 83.23 31.64L83.23 31.64L83.23 31.64Q82.63 30.85 82.63 29.79L82.63 29.79L82.63 29.79Q82.63 28.73 83.64 27.60L83.64 27.60L83.64 27.60Q84.65 26.47 84.65 26.22L84.65 26.22L84.57 25.97L84.05 25.42L84.05 25.42Q83.67 24.89 83.67 24.23L83.67 24.23L83.67 24.23Q83.67 23.57 84.31 22.68L84.31 22.68L84.31 22.68Q84.95 21.78 84.95 21.49L84.95 21.49L84.95 21.49Q84.96 21.23 84.58 20.70L84.58 20.70L84.58 20.70Q83.35 19.00 83.35 17.34L83.35 17.34L83.35 17.34Q83.35 16.36 83.85 15.38L83.85 15.38L83.85 15.38Q85.33 12.47 89.75 12.47L89.75 12.47L90.16 12.48ZM106.79 7.71L106.79 7.71L106.53 7.71L106.53 7.71Q105.17 7.71 105.00 8.22L105.00 8.22L105.00 8.22Q104.90 8.57 104.90 10.24L104.90 10.24L104.90 12.04L104.89 12.42L104.89 13.86L104.89 13.86Q104.89 15.06 105.08 15.26L105.08 15.26L105.08 15.26Q105.27 15.47 106.02 15.47L106.02 15.47L107.06 15.47L107.06 15.47Q109.30 15.47 110.31 14.62L110.31 14.62L110.31 14.62Q111.63 13.51 111.63 11.72L111.63 11.72L111.63 11.31L111.63 11.31Q111.63 9.46 110.12 8.42L110.12 8.42L110.12 8.42Q109.08 7.71 106.79 7.71ZM107.66 16.80L107.66 16.80L106.34 16.80L106.34 16.80Q105.17 16.80 105.02 17.14L105.02 17.14L105.02 17.14Q104.87 17.48 104.87 19.53L104.87 19.53L104.87 23.07L104.87 23.07Q104.87 24.71 105.05 24.96L105.05 24.96L105.05 24.96Q105.39 25.44 106.92 25.44L106.92 25.44L107.83 25.44L107.83 25.44Q111.20 25.44 112.26 23.25L112.26 23.25L112.26 23.25Q112.67 22.37 112.67 21.37L112.67 21.37L112.67 21.21L112.65 21.05L112.65 21.05Q112.65 18.98 111.29 17.89L111.29 17.89L111.29 17.89Q109.93 16.80 107.66 16.80ZM103.80 26.75L102.31 26.75L102.31 26.75Q99.80 26.75 99.80 26.24L99.80 26.24L99.80 26.24Q99.80 25.80 100.61 25.50L100.61 25.50L100.61 25.50Q101.42 25.20 101.66 24.56L101.66 24.56L101.66 24.56Q101.90 23.92 101.90 20.70L101.90 20.70L101.91 20.32L101.91 20.32Q101.93 19.94 101.93 19.56L101.93 19.56L101.94 19.17L101.94 18.40L101.93 17.26L101.93 17.26Q101.93 16.67 101.93 16.08L101.93 16.08L101.93 16.08Q101.93 9.61 101.61 8.64L101.61 8.64L101.61 8.64Q101.40 8.04 100.52 7.71L100.52 7.71L100.52 7.71Q99.64 7.38 99.64 6.99L99.64 6.99L99.64 6.99Q99.64 6.42 102.72 6.42L102.72 6.42L104.99 6.37L107.29 6.37L107.29 6.37Q110.67 6.37 112.53 7.62L112.53 7.62L112.53 7.62Q114.38 8.88 114.38 11.31L114.38 11.31L114.38 11.31Q114.38 12.77 113.65 13.79L113.65 13.79L113.65 13.79Q112.93 14.81 112.08 15.33L112.08 15.33L112.08 15.33Q111.23 15.85 111.23 15.95L111.23 15.95L111.23 15.95Q111.23 16.05 111.99 16.41L111.99 16.41L111.99 16.41Q112.75 16.76 112.83 16.80L112.83 16.80L112.83 16.80Q113.84 17.37 114.50 18.21L114.50 18.21L114.50 18.21Q115.63 19.63 115.63 21.27L115.63 21.27L115.63 21.65L115.63 21.65Q115.63 22.75 115.13 23.75L115.13 23.75L115.13 23.75Q114.17 25.59 111.77 26.35L111.77 26.35L111.77 26.35Q110.18 26.85 108.40 26.85L108.40 26.85L107.25 26.85L104.95 26.79L103.80 26.75ZM129.18 25.74L129.18 25.74L129.68 25.74L129.68 25.74Q132.43 25.74 134.04 23.26L134.04 23.26L134.04 23.26Q135.62 20.77 135.62 16.95L135.62 16.95L135.62 16.67L135.62 16.67Q135.62 12.44 133.92 9.90L133.92 9.90L133.92 9.90Q132.23 7.37 129.37 7.37L129.37 7.37L129.37 7.37Q126.53 7.37 124.83 9.81L124.83 9.81L124.83 9.81Q124.14 10.81 123.68 12.49L123.68 12.49L123.68 12.49Q123.22 14.17 123.22 16.16L123.22 16.16L123.22 16.42L123.22 16.42Q123.22 20.36 124.74 22.85L124.74 22.85L124.74 22.85Q125.52 24.14 126.72 24.94L126.72 24.94L126.72 24.94Q127.92 25.74 129.18 25.74ZM139.17 16.25L139.17 16.60L139.17 16.60Q139.17 18.74 138.42 20.79L138.42 20.79L138.42 20.79Q136.91 24.90 133.18 26.41L133.18 26.41L133.18 26.41Q131.42 27.11 129.69 27.11L129.69 27.11L129.02 27.11L129.02 27.11Q125.17 27.11 122.51 24.29L122.51 24.29L122.51 24.29Q121.42 23.12 120.68 21.12L120.68 21.12L120.68 21.12Q119.95 19.12 119.95 17.17L119.95 17.17L119.95 16.46L119.95 16.46Q119.95 14.28 120.70 12.26L120.70 12.26L120.70 12.26Q122.15 8.33 125.62 6.84L125.62 6.84L125.62 6.84Q127.49 6.02 129.71 6.02L129.71 6.02L130.04 6.02L130.04 6.02Q131.98 6.02 133.75 6.78L133.75 6.78L133.75 6.78Q137.29 8.29 138.64 12.67L138.64 12.67L138.64 12.67Q139.17 14.37 139.17 16.25L139.17 16.25ZM147.05 26.03L147.05 26.03L147.05 26.03Q147.05 25.69 148.04 25.19L148.04 25.19L148.04 25.19Q149.02 24.68 149.24 23.53L149.24 23.53L149.24 23.53Q149.46 22.38 149.46 15.97L149.46 15.97L149.46 15.97Q149.46 9.57 149.21 8.83L149.21 8.83L149.21 8.83Q148.97 8.10 147.43 8.10L147.43 8.10L147.43 8.10Q145.90 8.10 145.21 8.48L145.21 8.48L145.21 8.48Q144.52 8.86 144.05 9.59L144.05 9.59L144.05 9.59Q143.08 11.09 142.92 11.09L142.92 11.09L142.92 11.09Q142.23 11.09 142.23 10.24L142.23 10.24L142.23 9.80L142.23 9.80Q142.23 6.80 142.92 6.45L142.92 6.45L142.92 6.45Q143.19 6.31 150.57 6.31L150.57 6.31L156.59 6.33L156.59 6.33Q157.07 6.33 157.57 6.31L157.57 6.31L158.54 6.28L158.54 6.28Q159.29 6.28 159.53 6.65L159.53 6.65L159.53 6.65Q159.93 7.25 159.93 9.67L159.93 9.67L159.93 9.67Q159.93 10.91 159.53 10.91L159.53 10.91L159.53 10.91Q158.99 10.91 158.38 9.87L158.38 9.87L158.38 9.87Q157.76 8.82 157.06 8.43L157.06 8.43L157.06 8.43Q156.36 8.04 154.77 8.04L154.77 8.04L154.77 8.04Q153.19 8.04 152.91 8.76L152.91 8.76L152.91 8.76Q152.62 9.48 152.62 16.25L152.62 16.25L152.62 16.25Q152.62 23.03 152.78 23.86L152.78 23.86L152.78 23.86Q152.94 24.70 153.47 25.14L153.47 25.14L153.47 25.14Q153.63 25.27 154.24 25.56L154.24 25.56L154.24 25.56Q154.85 25.85 154.85 26.10L154.85 26.10L154.85 26.10Q154.85 26.73 153.84 26.73L153.84 26.73L152.87 26.73L150.00 26.67L150.00 26.67Q147.05 26.67 147.05 26.03Z" transform="rotate(0 80.625 19.76953125)"></path><defs id="SvgjsDefs1074"></defs></svg></g><g id="SvgjsG1077" transform="rotate(0 180.875 65.44999694824219)"><svg xmlns="http://www.w3.org/2000/svg" xmlns:xlink="http://www.w3.org/1999/xlink" width="247.01666259765625" viewBox="1.03125 2.1796875 247.01953125 12.6484375" overflow="visible" style="overflow: visible;" transform="" version="1.1" xmlns:svgjs="http://svgjs.com/svgjs" preserveAspectRatio="none" height="13" x="57.366668701171875" y="58.94999694824219" fill="#000000" stroke="none"><path stroke="none" fill="#000000" d="M6.75 2.82L7.53 2.82L7.53 9.13L7.53 9.13Q7.53 10.06 7.12 10.75L7.12 10.75L7.12 10.75Q6.72 11.44 5.98 11.82L5.98 11.82L5.98 11.82Q5.24 12.19 4.28 12.19L4.28 12.19L4.28 12.19Q2.82 12.19 1.94 11.39L1.94 11.39L1.94 11.39Q1.06 10.59 1.03 9.19L1.03 9.19L1.03 2.82L1.80 2.82L1.80 9.07L1.80 9.07Q1.80 10.24 2.47 10.88L2.47 10.88L2.47 10.88Q3.14 11.53 4.28 11.53L4.28 11.53L4.28 11.53Q5.42 11.53 6.08 10.88L6.08 10.88L6.08 10.88Q6.75 10.23 6.75 9.08L6.75 9.08L6.75 2.82ZM9.53 5.19L10.26 5.19L10.28 6.37L10.28 6.37Q10.67 5.73 11.25 5.40L11.25 5.40L11.25 5.40Q11.83 5.07 12.52 5.07L12.52 5.07L12.52 5.07Q13.63 5.07 14.17 5.69L14.17 5.69L14.17 5.69Q14.71 6.31 14.71 7.55L14.71 7.55L14.71 12.06L13.96 12.06L13.96 7.55L13.96 7.55Q13.95 6.63 13.57 6.18L13.57 6.18L13.57 6.18Q13.18 5.73 12.34 5.73L12.34 5.73L12.34 5.73Q11.64 5.73 11.09 6.17L11.09 6.17L11.09 6.17Q10.55 6.61 10.29 7.36L10.29 7.36L10.29 12.06L9.53 12.06L9.53 5.19ZM17.53 5.19L17.53 12.06L16.76 12.06L16.76 5.19L17.53 5.19ZM16.63 3.21L16.63 3.21L16.63 3.21Q16.63 2.99 16.77 2.84L16.77 2.84L16.77 2.84Q16.91 2.69 17.15 2.69L17.15 2.69L17.15 2.69Q17.39 2.69 17.54 2.84L17.54 2.84L17.54 2.84Q17.68 2.99 17.68 3.21L17.68 3.21L17.68 3.21Q17.68 3.42 17.54 3.57L17.54 3.57L17.54 3.57Q17.39 3.71 17.15 3.71L17.15 3.71L17.15 3.71Q16.91 3.71 16.77 3.57L16.77 3.57L16.77 3.57Q16.63 3.42 16.63 3.21ZM19.62 5.19L21.73 11.01L23.82 5.19L24.60 5.19L22.03 12.06L21.42 12.06L18.84 5.19L19.62 5.19ZM28.42 12.19L28.42 12.19L28.42 12.19Q27.54 12.19 26.83 11.76L26.83 11.76L26.83 11.76Q26.13 11.32 25.73 10.55L25.73 10.55L25.73 10.55Q25.34 9.78 25.34 8.82L25.34 8.82L25.34 8.55L25.34 8.55Q25.34 7.56 25.72 6.77L25.72 6.77L25.72 6.77Q26.11 5.97 26.79 5.52L26.79 5.52L26.79 5.52Q27.48 5.07 28.28 5.07L28.28 5.07L28.28 5.07Q29.53 5.07 30.26 5.92L30.26 5.92L30.26 5.92Q31.00 6.77 31.00 8.25L31.00 8.25L31.00 8.68L26.10 8.68L26.10 8.82L26.10 8.82Q26.10 9.99 26.76 10.77L26.76 10.77L26.76 10.77Q27.43 11.55 28.45 11.55L28.45 11.55L28.45 11.55Q29.06 11.55 29.53 11.32L29.53 11.32L29.53 11.32Q29.99 11.10 30.37 10.61L30.37 10.61L30.85 10.98L30.85 10.98Q30.01 12.19 28.42 12.19ZM28.28 5.71L28.28 5.71L28.28 5.71Q27.42 5.71 26.83 6.34L26.83 6.34L26.83 6.34Q26.25 6.97 26.12 8.03L26.12 8.03L30.24 8.03L30.24 7.95L30.24 7.95Q30.21 6.96 29.68 6.33L29.68 6.33L29.68 6.33Q29.14 5.71 28.28 5.71ZM35.67 5.15L35.65 5.84L35.65 5.84Q35.41 5.80 35.13 5.80L35.13 5.80L35.13 5.80Q34.42 5.80 33.93 6.19L33.93 6.19L33.93 6.19Q33.44 6.59 33.23 7.34L33.23 7.34L33.23 12.06L32.47 12.06L32.47 5.19L33.22 5.19L33.23 6.28L33.23 6.28Q33.83 5.07 35.17 5.07L35.17 5.07L35.17 5.07Q35.48 5.07 35.67 5.15L35.67 5.15ZM40.96 10.31L40.96 10.31L40.96 10.31Q40.96 9.75 40.51 9.41L40.51 9.41L40.51 9.41Q40.05 9.06 39.14 8.87L39.14 8.87L39.14 8.87Q38.23 8.68 37.72 8.43L37.72 8.43L37.72 8.43Q37.22 8.18 36.97 7.81L36.97 7.81L36.97 7.81Q36.73 7.45 36.73 6.94L36.73 6.94L36.73 6.94Q36.73 6.13 37.41 5.60L37.41 5.60L37.41 5.60Q38.09 5.07 39.15 5.07L39.15 5.07L39.15 5.07Q40.29 5.07 40.99 5.63L40.99 5.63L40.99 5.63Q41.69 6.20 41.69 7.12L41.69 7.12L40.92 7.12L40.92 7.12Q40.92 6.51 40.42 6.11L40.42 6.11L40.42 6.11Q39.91 5.71 39.15 5.71L39.15 5.71L39.15 5.71Q38.40 5.71 37.94 6.05L37.94 6.05L37.94 6.05Q37.49 6.38 37.49 6.91L37.49 6.91L37.49 6.91Q37.49 7.43 37.87 7.71L37.87 7.71L37.87 7.71Q38.24 7.99 39.24 8.23L39.24 8.23L39.24 8.23Q40.24 8.46 40.74 8.73L40.74 8.73L40.74 8.73Q41.24 8.99 41.48 9.37L41.48 9.37L41.48 9.37Q41.72 9.74 41.72 10.28L41.72 10.28L41.72 10.28Q41.72 11.15 41.02 11.67L41.02 11.67L41.02 11.67Q40.32 12.19 39.19 12.19L39.19 12.19L39.19 12.19Q37.99 12.19 37.24 11.61L37.24 11.61L37.24 11.61Q36.50 11.03 36.50 10.14L36.50 10.14L37.26 10.14L37.26 10.14Q37.31 10.80 37.82 11.18L37.82 11.18L37.82 11.18Q38.34 11.55 39.19 11.55L39.19 11.55L39.19 11.55Q39.98 11.55 40.47 11.20L40.47 11.20L40.47 11.20Q40.96 10.85 40.96 10.31ZM44.28 5.19L44.28 12.06L43.52 12.06L43.52 5.19L44.28 5.19ZM43.39 3.21L43.39 3.21L43.39 3.21Q43.39 2.99 43.53 2.84L43.53 2.84L43.53 2.84Q43.67 2.69 43.91 2.69L43.91 2.69L43.91 2.69Q44.15 2.69 44.29 2.84L44.29 2.84L44.29 2.84Q44.43 2.99 44.43 3.21L44.43 3.21L44.43 3.21Q44.43 3.42 44.29 3.57L44.29 3.57L44.29 3.57Q44.15 3.71 43.91 3.71L43.91 3.71L43.91 3.71Q43.67 3.71 43.53 3.57L43.53 3.57L43.53 3.57Q43.39 3.42 43.39 3.21ZM46.76 3.43L47.52 3.43L47.52 5.19L48.95 5.19L48.95 5.81L47.52 5.81L47.52 10.39L47.52 10.39Q47.52 10.96 47.73 11.24L47.73 11.24L47.73 11.24Q47.94 11.52 48.42 11.52L48.42 11.52L48.42 11.52Q48.61 11.52 49.04 11.46L49.04 11.46L49.07 12.08L49.07 12.08Q48.77 12.19 48.25 12.19L48.25 12.19L48.25 12.19Q47.47 12.19 47.12 11.73L47.12 11.73L47.12 11.73Q46.76 11.28 46.76 10.40L46.76 10.40L46.76 5.81L45.50 5.81L45.50 5.19L46.76 5.19L46.76 3.43ZM50.57 5.19L52.70 10.97L54.70 5.19L55.52 5.19L52.59 13.23L52.44 13.58L52.44 13.58Q51.87 14.83 50.69 14.83L50.69 14.83L50.69 14.83Q50.42 14.83 50.11 14.75L50.11 14.75L50.10 14.12L50.50 14.16L50.50 14.16Q51.05 14.16 51.40 13.88L51.40 13.88L51.40 13.88Q51.75 13.60 51.99 12.93L51.99 12.93L52.32 12.00L49.73 5.19L50.57 5.19ZM59.44 8.68L59.44 8.52L59.44 8.52Q59.44 7.53 59.82 6.74L59.82 6.74L59.82 6.74Q60.21 5.95 60.91 5.51L60.91 5.51L60.91 5.51Q61.61 5.07 62.50 5.07L62.50 5.07L62.50 5.07Q63.87 5.07 64.72 6.03L64.72 6.03L64.72 6.03Q65.57 6.99 65.57 8.58L65.57 8.58L65.57 8.73L65.57 8.73Q65.57 9.73 65.19 10.53L65.19 10.53L65.19 10.53Q64.80 11.32 64.10 11.76L64.10 11.76L64.10 11.76Q63.41 12.19 62.51 12.19L62.51 12.19L62.51 12.19Q61.15 12.19 60.29 11.23L60.29 11.23L60.29 11.23Q59.44 10.26 59.44 8.68L59.44 8.68ZM60.20 8.59L60.20 8.73L60.20 8.73Q60.20 9.97 60.84 10.76L60.84 10.76L60.84 10.76Q61.48 11.55 62.51 11.55L62.51 11.55L62.51 11.55Q63.54 11.55 64.18 10.76L64.18 10.76L64.18 10.76Q64.82 9.97 64.82 8.67L64.82 8.67L64.82 8.52L64.82 8.52Q64.82 7.74 64.52 7.08L64.52 7.08L64.52 7.08Q64.23 6.43 63.71 6.07L63.71 6.07L63.71 6.07Q63.18 5.71 62.50 5.71L62.50 5.71L62.50 5.71Q61.48 5.71 60.84 6.51L60.84 6.51L60.84 6.51Q60.20 7.31 60.20 8.59L60.20 8.59ZM68.45 12.06L67.69 12.06L67.69 5.81L66.55 5.81L66.55 5.19L67.69 5.19L67.69 4.36L67.69 4.36Q67.69 3.31 68.22 2.74L68.22 2.74L68.22 2.74Q68.76 2.18 69.72 2.18L69.72 2.18L69.72 2.18Q70.15 2.18 70.52 2.29L70.52 2.29L70.47 2.92L70.47 2.92Q70.15 2.84 69.77 2.84L69.77 2.84L69.77 2.84Q69.15 2.84 68.80 3.23L68.80 3.23L68.80 3.23Q68.45 3.62 68.45 4.34L68.45 4.34L68.45 5.19L70.08 5.19L70.08 5.81L68.45 5.81L68.45 12.06ZM74.78 2.82L75.82 2.82L79.23 10.98L82.65 2.82L83.69 2.82L83.69 12.06L82.91 12.06L82.91 8.04L82.97 3.91L79.53 12.06L78.93 12.06L75.50 3.94L75.56 8.01L75.56 12.06L74.78 12.06L74.78 2.82ZM91 12.06L90.19 12.06L90.19 12.06Q90.07 11.74 90.04 11.10L90.04 11.10L90.04 11.10Q89.64 11.62 89.02 11.91L89.02 11.91L89.02 11.91Q88.40 12.19 87.71 12.19L87.71 12.19L87.71 12.19Q86.72 12.19 86.11 11.64L86.11 11.64L86.11 11.64Q85.50 11.08 85.50 10.24L85.50 10.24L85.50 10.24Q85.50 9.24 86.33 8.65L86.33 8.65L86.33 8.65Q87.17 8.07 88.66 8.07L88.66 8.07L90.04 8.07L90.04 7.29L90.04 7.29Q90.04 6.55 89.58 6.13L89.58 6.13L89.58 6.13Q89.13 5.71 88.26 5.71L88.26 5.71L88.26 5.71Q87.46 5.71 86.94 6.11L86.94 6.11L86.94 6.11Q86.42 6.52 86.42 7.09L86.42 7.09L85.66 7.08L85.66 7.08Q85.66 6.27 86.42 5.67L86.42 5.67L86.42 5.67Q87.19 5.07 88.30 5.07L88.30 5.07L88.30 5.07Q89.44 5.07 90.11 5.64L90.11 5.64L90.11 5.64Q90.77 6.21 90.79 7.24L90.79 7.24L90.79 10.49L90.79 10.49Q90.79 11.49 91 11.98L91 11.98L91 12.06ZM87.80 11.51L87.80 11.51L87.80 11.51Q88.56 11.51 89.16 11.15L89.16 11.15L89.16 11.15Q89.76 10.78 90.04 10.16L90.04 10.16L90.04 8.65L88.68 8.65L88.68 8.65Q87.54 8.66 86.90 9.07L86.90 9.07L86.90 9.07Q86.26 9.47 86.26 10.18L86.26 10.18L86.26 10.18Q86.26 10.75 86.69 11.13L86.69 11.13L86.69 11.13Q87.12 11.51 87.80 11.51ZM92.82 5.19L93.54 5.19L93.56 6.37L93.56 6.37Q93.95 5.73 94.53 5.40L94.53 5.40L94.53 5.40Q95.11 5.07 95.81 5.07L95.81 5.07L95.81 5.07Q96.91 5.07 97.45 5.69L97.45 5.69L97.45 5.69Q97.99 6.31 98.00 7.55L98.00 7.55L98.00 12.06L97.24 12.06L97.24 7.55L97.24 7.55Q97.23 6.63 96.85 6.18L96.85 6.18L96.85 6.18Q96.47 5.73 95.62 5.73L95.62 5.73L95.62 5.73Q94.92 5.73 94.37 6.17L94.37 6.17L94.37 6.17Q93.83 6.61 93.57 7.36L93.57 7.36L93.57 12.06L92.82 12.06L92.82 5.19ZM100.81 5.19L100.81 12.06L100.05 12.06L100.05 5.19L100.81 5.19ZM99.91 3.21L99.91 3.21L99.91 3.21Q99.91 2.99 100.05 2.84L100.05 2.84L100.05 2.84Q100.19 2.69 100.43 2.69L100.43 2.69L100.43 2.69Q100.67 2.69 100.82 2.84L100.82 2.84L100.82 2.84Q100.96 2.99 100.96 3.21L100.96 3.21L100.96 3.21Q100.96 3.42 100.82 3.57L100.82 3.57L100.82 3.57Q100.67 3.71 100.43 3.71L100.43 3.71L100.43 3.71Q100.19 3.71 100.05 3.57L100.05 3.57L100.05 3.57Q99.91 3.42 99.91 3.21ZM103.29 3.43L104.05 3.43L104.05 5.19L105.47 5.19L105.47 5.81L104.05 5.81L104.05 10.39L104.05 10.39Q104.05 10.96 104.26 11.24L104.26 11.24L104.26 11.24Q104.46 11.52 104.95 11.52L104.95 11.52L104.95 11.52Q105.14 11.52 105.56 11.46L105.56 11.46L105.59 12.08L105.59 12.08Q105.29 12.19 104.78 12.19L104.78 12.19L104.78 12.19Q104 12.19 103.64 11.73L103.64 11.73L103.64 11.73Q103.29 11.28 103.29 10.40L103.29 10.40L103.29 5.81L102.03 5.81L102.03 5.19L103.29 5.19L103.29 3.43ZM106.50 8.68L106.50 8.52L106.50 8.52Q106.50 7.53 106.89 6.74L106.89 6.74L106.89 6.74Q107.27 5.95 107.97 5.51L107.97 5.51L107.97 5.51Q108.67 5.07 109.56 5.07L109.56 5.07L109.56 5.07Q110.93 5.07 111.78 6.03L111.78 6.03L111.78 6.03Q112.63 6.99 112.63 8.58L112.63 8.58L112.63 8.73L112.63 8.73Q112.63 9.73 112.25 10.53L112.25 10.53L112.25 10.53Q111.86 11.32 111.17 11.76L111.17 11.76L111.17 11.76Q110.47 12.19 109.57 12.19L109.57 12.19L109.57 12.19Q108.21 12.19 107.35 11.23L107.35 11.23L107.35 11.23Q106.50 10.26 106.50 8.68L106.50 8.68ZM107.26 8.59L107.26 8.73L107.26 8.73Q107.26 9.97 107.90 10.76L107.90 10.76L107.90 10.76Q108.54 11.55 109.57 11.55L109.57 11.55L109.57 11.55Q110.60 11.55 111.24 10.76L111.24 10.76L111.24 10.76Q111.88 9.97 111.88 8.67L111.88 8.67L111.88 8.52L111.88 8.52Q111.88 7.74 111.59 7.08L111.59 7.08L111.59 7.08Q111.29 6.43 110.77 6.07L110.77 6.07L110.77 6.07Q110.24 5.71 109.56 5.71L109.56 5.71L109.56 5.71Q108.54 5.71 107.90 6.51L107.90 6.51L107.90 6.51Q107.26 7.31 107.26 8.59L107.26 8.59ZM119.73 8.58L119.73 8.70L119.73 8.70Q119.73 10.30 119.02 11.24L119.02 11.24L119.02 11.24Q118.31 12.19 117.11 12.19L117.11 12.19L117.11 12.19Q115.67 12.19 114.94 11.12L114.94 11.12L114.91 12.06L114.19 12.06L114.19 2.31L114.95 2.31L114.95 6.19L114.95 6.19Q115.67 5.07 117.10 5.07L117.10 5.07L117.10 5.07Q118.31 5.07 119.02 6.00L119.02 6.00L119.02 6.00Q119.73 6.93 119.73 8.58L119.73 8.58ZM118.97 8.56L118.97 8.56L118.97 8.56Q118.97 7.20 118.44 6.47L118.44 6.47L118.44 6.47Q117.91 5.73 116.96 5.73L116.96 5.73L116.96 5.73Q116.23 5.73 115.72 6.08L115.72 6.08L115.72 6.08Q115.21 6.44 114.95 7.13L114.95 7.13L114.95 10.23L114.95 10.23Q115.52 11.53 116.97 11.53L116.97 11.53L116.97 11.53Q117.91 11.53 118.44 10.78L118.44 10.78L118.44 10.78Q118.97 10.04 118.97 8.56ZM126.55 12.06L125.74 12.06L125.74 12.06Q125.63 11.74 125.59 11.10L125.59 11.10L125.59 11.10Q125.19 11.62 124.58 11.91L124.58 11.91L124.58 11.91Q123.96 12.19 123.27 12.19L123.27 12.19L123.27 12.19Q122.27 12.19 121.66 11.64L121.66 11.64L121.66 11.64Q121.05 11.08 121.05 10.24L121.05 10.24L121.05 10.24Q121.05 9.24 121.88 8.65L121.88 8.65L121.88 8.65Q122.72 8.07 124.21 8.07L124.21 8.07L125.59 8.07L125.59 7.29L125.59 7.29Q125.59 6.55 125.13 6.13L125.13 6.13L125.13 6.13Q124.68 5.71 123.81 5.71L123.81 5.71L123.81 5.71Q123.02 5.71 122.50 6.11L122.50 6.11L122.50 6.11Q121.98 6.52 121.98 7.09L121.98 7.09L121.21 7.08L121.21 7.08Q121.21 6.27 121.98 5.67L121.98 5.67L121.98 5.67Q122.74 5.07 123.85 5.07L123.85 5.07L123.85 5.07Q125.00 5.07 125.66 5.64L125.66 5.64L125.66 5.64Q126.32 6.21 126.34 7.24L126.34 7.24L126.34 10.49L126.34 10.49Q126.34 11.49 126.55 11.98L126.55 11.98L126.55 12.06ZM123.35 11.51L123.35 11.51L123.35 11.51Q124.12 11.51 124.72 11.15L124.72 11.15L124.72 11.15Q125.32 10.78 125.59 10.16L125.59 10.16L125.59 8.65L124.23 8.65L124.23 8.65Q123.09 8.66 122.45 9.07L122.45 9.07L122.45 9.07Q121.81 9.47 121.81 10.18L121.81 10.18L121.81 10.18Q121.81 10.75 122.24 11.13L122.24 11.13L122.24 11.13Q122.67 11.51 123.35 11.51ZM137.66 12.06L136.70 9.47L132.50 9.47L131.55 12.06L130.73 12.06L134.23 2.82L134.97 2.82L138.47 12.06L137.66 12.06ZM134.60 3.77L132.74 8.80L136.45 8.80L134.60 3.77ZM139.34 8.66L139.34 8.56L139.34 8.56Q139.34 6.95 140.06 6.01L140.06 6.01L140.06 6.01Q140.77 5.07 142.00 5.07L142.00 5.07L142.00 5.07Q143.40 5.07 144.13 6.18L144.13 6.18L144.17 5.19L144.88 5.19L144.88 11.92L144.88 11.92Q144.88 13.25 144.14 14.02L144.14 14.02L144.14 14.02Q143.39 14.80 142.12 14.80L142.12 14.80L142.12 14.80Q141.41 14.80 140.76 14.48L140.76 14.48L140.76 14.48Q140.11 14.16 139.73 13.62L139.73 13.62L140.16 13.17L140.16 13.17Q140.96 14.16 142.07 14.16L142.07 14.16L142.07 14.16Q143.03 14.16 143.56 13.59L143.56 13.59L143.56 13.59Q144.09 13.03 144.11 12.04L144.11 12.04L144.11 11.17L144.11 11.17Q143.38 12.19 141.98 12.19L141.98 12.19L141.98 12.19Q140.79 12.19 140.07 11.24L140.07 11.24L140.07 11.24Q139.34 10.28 139.34 8.66L139.34 8.66ZM140.11 8.70L140.11 8.70L140.11 8.70Q140.11 10.01 140.64 10.77L140.64 10.77L140.64 10.77Q141.17 11.53 142.12 11.53L142.12 11.53L142.12 11.53Q143.53 11.53 144.11 10.27L144.11 10.27L144.11 7.08L144.11 7.08Q143.84 6.42 143.34 6.07L143.34 6.07L143.34 6.07Q142.84 5.73 142.14 5.73L142.14 5.73L142.14 5.73Q141.18 5.73 140.65 6.48L140.65 6.48L140.65 6.48Q140.11 7.23 140.11 8.70ZM150.05 5.15L150.03 5.84L150.03 5.84Q149.79 5.80 149.52 5.80L149.52 5.80L149.52 5.80Q148.81 5.80 148.32 6.19L148.32 6.19L148.32 6.19Q147.82 6.59 147.61 7.34L147.61 7.34L147.61 12.06L146.86 12.06L146.86 5.19L147.60 5.19L147.61 6.28L147.61 6.28Q148.22 5.07 149.55 5.07L149.55 5.07L149.55 5.07Q149.87 5.07 150.05 5.15L150.05 5.15ZM152.08 5.19L152.08 12.06L151.32 12.06L151.32 5.19L152.08 5.19ZM151.19 3.21L151.19 3.21L151.19 3.21Q151.19 2.99 151.33 2.84L151.33 2.84L151.33 2.84Q151.47 2.69 151.71 2.69L151.71 2.69L151.71 2.69Q151.95 2.69 152.09 2.84L152.09 2.84L152.09 2.84Q152.24 2.99 152.24 3.21L152.24 3.21L152.24 3.21Q152.24 3.42 152.09 3.57L152.09 3.57L152.09 3.57Q151.95 3.71 151.71 3.71L151.71 3.71L151.71 3.71Q151.47 3.71 151.33 3.57L151.33 3.57L151.33 3.57Q151.19 3.42 151.19 3.21ZM156.69 11.55L156.69 11.55L156.69 11.55Q157.48 11.55 158.02 11.10L158.02 11.10L158.02 11.10Q158.55 10.65 158.60 9.94L158.60 9.94L159.33 9.94L159.33 9.94Q159.29 10.57 158.93 11.09L158.93 11.09L158.93 11.09Q158.57 11.60 157.97 11.90L157.97 11.90L157.97 11.90Q157.37 12.19 156.69 12.19L156.69 12.19L156.69 12.19Q155.33 12.19 154.54 11.25L154.54 11.25L154.54 11.25Q153.75 10.31 153.75 8.72L153.75 8.72L153.75 8.49L153.75 8.49Q153.75 7.48 154.11 6.70L154.11 6.70L154.11 6.70Q154.46 5.92 155.13 5.49L155.13 5.49L155.13 5.49Q155.79 5.07 156.68 5.07L156.68 5.07L156.68 5.07Q157.81 5.07 158.54 5.74L158.54 5.74L158.54 5.74Q159.28 6.41 159.33 7.51L159.33 7.51L158.60 7.51L158.60 7.51Q158.55 6.70 158.02 6.21L158.02 6.21L158.02 6.21Q157.49 5.71 156.68 5.71L156.68 5.71L156.68 5.71Q155.65 5.71 155.08 6.46L155.08 6.46L155.08 6.46Q154.51 7.20 154.51 8.54L154.51 8.54L154.51 8.76L154.51 8.76Q154.51 10.07 155.08 10.81L155.08 10.81L155.08 10.81Q155.65 11.55 156.69 11.55ZM165.27 12.06L165.26 11.19L165.26 11.19Q164.58 12.19 163.07 12.19L163.07 12.19L163.07 12.19Q161.97 12.19 161.40 11.55L161.40 11.55L161.40 11.55Q160.83 10.91 160.82 9.66L160.82 9.66L160.82 5.19L161.57 5.19L161.57 9.57L161.57 9.57Q161.57 11.53 163.16 11.53L163.16 11.53L163.16 11.53Q164.81 11.53 165.25 10.16L165.25 10.16L165.25 5.19L166.01 5.19L166.01 12.06L165.27 12.06ZM168.83 2.31L168.83 12.06L168.07 12.06L168.07 2.31L168.83 2.31ZM171.32 3.43L172.08 3.43L172.08 5.19L173.50 5.19L173.50 5.81L172.08 5.81L172.08 10.39L172.08 10.39Q172.08 10.96 172.28 11.24L172.28 11.24L172.28 11.24Q172.49 11.52 172.97 11.52L172.97 11.52L172.97 11.52Q173.16 11.52 173.59 11.46L173.59 11.46L173.62 12.08L173.62 12.08Q173.32 12.19 172.81 12.19L172.81 12.19L172.81 12.19Q172.03 12.19 171.67 11.73L171.67 11.73L171.67 11.73Q171.32 11.28 171.32 10.40L171.32 10.40L171.32 5.81L170.05 5.81L170.05 5.19L171.32 5.19L171.32 3.43ZM179.51 12.06L179.49 11.19L179.49 11.19Q178.81 12.19 177.30 12.19L177.30 12.19L177.30 12.19Q176.20 12.19 175.63 11.55L175.63 11.55L175.63 11.55Q175.06 10.91 175.05 9.66L175.05 9.66L175.05 5.19L175.80 5.19L175.80 9.57L175.80 9.57Q175.80 11.53 177.39 11.53L177.39 11.53L177.39 11.53Q179.04 11.53 179.48 10.16L179.48 10.16L179.48 5.19L180.24 5.19L180.24 12.06L179.51 12.06ZM185.41 5.15L185.39 5.84L185.39 5.84Q185.15 5.80 184.88 5.80L184.88 5.80L184.88 5.80Q184.16 5.80 183.67 6.19L183.67 6.19L183.67 6.19Q183.18 6.59 182.97 7.34L182.97 7.34L182.97 12.06L182.22 12.06L182.22 5.19L182.96 5.19L182.97 6.28L182.97 6.28Q183.57 5.07 184.91 5.07L184.91 5.07L184.91 5.07Q185.22 5.07 185.41 5.15L185.41 5.15ZM191.48 12.06L190.67 12.06L190.67 12.06Q190.56 11.74 190.52 11.10L190.52 11.10L190.52 11.10Q190.13 11.62 189.51 11.91L189.51 11.91L189.51 11.91Q188.89 12.19 188.20 12.19L188.20 12.19L188.20 12.19Q187.21 12.19 186.59 11.64L186.59 11.64L186.59 11.64Q185.98 11.08 185.98 10.24L185.98 10.24L185.98 10.24Q185.98 9.24 186.81 8.65L186.81 8.65L186.81 8.65Q187.65 8.07 189.14 8.07L189.14 8.07L190.52 8.07L190.52 7.29L190.52 7.29Q190.52 6.55 190.06 6.13L190.06 6.13L190.06 6.13Q189.61 5.71 188.74 5.71L188.74 5.71L188.74 5.71Q187.95 5.71 187.43 6.11L187.43 6.11L187.43 6.11Q186.91 6.52 186.91 7.09L186.91 7.09L186.15 7.08L186.15 7.08Q186.15 6.27 186.91 5.67L186.91 5.67L186.91 5.67Q187.67 5.07 188.78 5.07L188.78 5.07L188.78 5.07Q189.93 5.07 190.59 5.64L190.59 5.64L190.59 5.64Q191.25 6.21 191.27 7.24L191.27 7.24L191.27 10.49L191.27 10.49Q191.27 11.49 191.48 11.98L191.48 11.98L191.48 12.06ZM188.28 11.51L188.28 11.51L188.28 11.51Q189.05 11.51 189.65 11.15L189.65 11.15L189.65 11.15Q190.25 10.78 190.52 10.16L190.52 10.16L190.52 8.65L189.16 8.65L189.16 8.65Q188.02 8.66 187.38 9.07L187.38 9.07L187.38 9.07Q186.74 9.47 186.74 10.18L186.74 10.18L186.74 10.18Q186.74 10.75 187.17 11.13L187.17 11.13L187.17 11.13Q187.60 11.51 188.28 11.51ZM194.15 2.31L194.15 12.06L193.39 12.06L193.39 2.31L194.15 2.31ZM205.24 12.06L203.00 8.21L200.32 8.21L200.32 12.06L199.53 12.06L199.53 2.82L202.53 2.82L202.53 2.82Q204.01 2.82 204.85 3.54L204.85 3.54L204.85 3.54Q205.68 4.25 205.68 5.54L205.68 5.54L205.68 5.54Q205.68 6.43 205.16 7.11L205.16 7.11L205.16 7.11Q204.64 7.79 203.76 8.05L203.76 8.05L206.07 11.98L206.07 12.06L205.24 12.06ZM200.32 3.48L200.32 7.55L202.71 7.55L202.71 7.55Q203.70 7.55 204.29 6.99L204.29 6.99L204.29 6.99Q204.89 6.43 204.89 5.54L204.89 5.54L204.89 5.54Q204.89 4.56 204.27 4.02L204.27 4.02L204.27 4.02Q203.65 3.48 202.52 3.48L202.52 3.48L200.32 3.48ZM207.21 8.68L207.21 8.52L207.21 8.52Q207.21 7.53 207.59 6.74L207.59 6.74L207.59 6.74Q207.97 5.95 208.68 5.51L208.68 5.51L208.68 5.51Q209.38 5.07 210.27 5.07L210.27 5.07L210.27 5.07Q211.64 5.07 212.49 6.03L212.49 6.03L212.49 6.03Q213.34 6.99 213.34 8.58L213.34 8.58L213.34 8.73L213.34 8.73Q213.34 9.73 212.95 10.53L212.95 10.53L212.95 10.53Q212.57 11.32 211.87 11.76L211.87 11.76L211.87 11.76Q211.17 12.19 210.28 12.19L210.28 12.19L210.28 12.19Q208.91 12.19 208.06 11.23L208.06 11.23L208.06 11.23Q207.21 10.26 207.21 8.68L207.21 8.68ZM207.97 8.59L207.97 8.73L207.97 8.73Q207.97 9.97 208.61 10.76L208.61 10.76L208.61 10.76Q209.24 11.55 210.28 11.55L210.28 11.55L210.28 11.55Q211.31 11.55 211.95 10.76L211.95 10.76L211.95 10.76Q212.58 9.97 212.58 8.67L212.58 8.67L212.58 8.52L212.58 8.52Q212.58 7.74 212.29 7.08L212.29 7.08L212.29 7.08Q212.00 6.43 211.47 6.07L211.47 6.07L211.47 6.07Q210.95 5.71 210.27 5.71L210.27 5.71L210.27 5.71Q209.25 5.71 208.61 6.51L208.61 6.51L208.61 6.51Q207.97 7.31 207.97 8.59L207.97 8.59ZM220.44 8.58L220.44 8.70L220.44 8.70Q220.44 10.30 219.72 11.24L219.72 11.24L219.72 11.24Q219.01 12.19 217.81 12.19L217.81 12.19L217.81 12.19Q216.38 12.19 215.64 11.12L215.64 11.12L215.61 12.06L214.90 12.06L214.90 2.31L215.66 2.31L215.66 6.19L215.66 6.19Q216.38 5.07 217.80 5.07L217.80 5.07L217.80 5.07Q219.02 5.07 219.73 6.00L219.73 6.00L219.73 6.00Q220.44 6.93 220.44 8.58L220.44 8.58ZM219.67 8.56L219.67 8.56L219.67 8.56Q219.67 7.20 219.15 6.47L219.15 6.47L219.15 6.47Q218.62 5.73 217.66 5.73L217.66 5.73L217.66 5.73Q216.93 5.73 216.42 6.08L216.42 6.08L216.42 6.08Q215.92 6.44 215.66 7.13L215.66 7.13L215.66 10.23L215.66 10.23Q216.23 11.53 217.67 11.53L217.67 11.53L217.67 11.53Q218.61 11.53 219.14 10.78L219.14 10.78L219.14 10.78Q219.67 10.04 219.67 8.56ZM221.69 8.68L221.69 8.52L221.69 8.52Q221.69 7.53 222.08 6.74L222.08 6.74L222.08 6.74Q222.46 5.95 223.16 5.51L223.16 5.51L223.16 5.51Q223.86 5.07 224.75 5.07L224.75 5.07L224.75 5.07Q226.12 5.07 226.97 6.03L226.97 6.03L226.97 6.03Q227.82 6.99 227.82 8.58L227.82 8.58L227.82 8.73L227.82 8.73Q227.82 9.73 227.44 10.53L227.44 10.53L227.44 10.53Q227.06 11.32 226.36 11.76L226.36 11.76L226.36 11.76Q225.66 12.19 224.76 12.19L224.76 12.19L224.76 12.19Q223.40 12.19 222.55 11.23L222.55 11.23L222.55 11.23Q221.69 10.26 221.69 8.68L221.69 8.68ZM222.45 8.59L222.45 8.73L222.45 8.73Q222.45 9.97 223.09 10.76L223.09 10.76L223.09 10.76Q223.73 11.55 224.76 11.55L224.76 11.55L224.76 11.55Q225.79 11.55 226.43 10.76L226.43 10.76L226.43 10.76Q227.07 9.97 227.07 8.67L227.07 8.67L227.07 8.52L227.07 8.52Q227.07 7.74 226.78 7.08L226.78 7.08L226.78 7.08Q226.48 6.43 225.96 6.07L225.96 6.07L225.96 6.07Q225.43 5.71 224.75 5.71L224.75 5.71L224.75 5.71Q223.74 5.71 223.09 6.51L223.09 6.51L223.09 6.51Q222.45 7.31 222.45 8.59L222.45 8.59ZM229.81 3.43L230.57 3.43L230.57 5.19L231.99 5.19L231.99 5.81L230.57 5.81L230.57 10.39L230.57 10.39Q230.57 10.96 230.78 11.24L230.78 11.24L230.78 11.24Q230.98 11.52 231.47 11.52L231.47 11.52L231.47 11.52Q231.66 11.52 232.08 11.46L232.08 11.46L232.11 12.08L232.11 12.08Q231.82 12.19 231.30 12.19L231.30 12.19L231.30 12.19Q230.52 12.19 230.17 11.73L230.17 11.73L230.17 11.73Q229.81 11.28 229.81 10.40L229.81 10.40L229.81 5.81L228.55 5.81L228.55 5.19L229.81 5.19L229.81 3.43ZM234.42 5.19L234.42 12.06L233.66 12.06L233.66 5.19L234.42 5.19ZM233.52 3.21L233.52 3.21L233.52 3.21Q233.52 2.99 233.66 2.84L233.66 2.84L233.66 2.84Q233.80 2.69 234.04 2.69L234.04 2.69L234.04 2.69Q234.29 2.69 234.43 2.84L234.43 2.84L234.43 2.84Q234.57 2.99 234.57 3.21L234.57 3.21L234.57 3.21Q234.57 3.42 234.43 3.57L234.43 3.57L234.43 3.57Q234.29 3.71 234.04 3.71L234.04 3.71L234.04 3.71Q233.80 3.71 233.66 3.57L233.66 3.57L233.66 3.57Q233.52 3.42 233.52 3.21ZM239.02 11.55L239.02 11.55L239.02 11.55Q239.81 11.55 240.35 11.10L240.35 11.10L240.35 11.10Q240.89 10.65 240.93 9.94L240.93 9.94L241.66 9.94L241.66 9.94Q241.63 10.57 241.27 11.09L241.27 11.09L241.27 11.09Q240.91 11.60 240.31 11.90L240.31 11.90L240.31 11.90Q239.71 12.19 239.02 12.19L239.02 12.19L239.02 12.19Q237.67 12.19 236.88 11.25L236.88 11.25L236.88 11.25Q236.09 10.31 236.09 8.72L236.09 8.72L236.09 8.49L236.09 8.49Q236.09 7.48 236.44 6.70L236.44 6.70L236.44 6.70Q236.80 5.92 237.46 5.49L237.46 5.49L237.46 5.49Q238.13 5.07 239.01 5.07L239.01 5.07L239.01 5.07Q240.14 5.07 240.88 5.74L240.88 5.74L240.88 5.74Q241.61 6.41 241.66 7.51L241.66 7.51L240.93 7.51L240.93 7.51Q240.88 6.70 240.35 6.21L240.35 6.21L240.35 6.21Q239.82 5.71 239.01 5.71L239.01 5.71L239.01 5.71Q237.99 5.71 237.42 6.46L237.42 6.46L237.42 6.46Q236.85 7.20 236.85 8.54L236.85 8.54L236.85 8.76L236.85 8.76Q236.85 10.07 237.42 10.81L237.42 10.81L237.42 10.81Q237.99 11.55 239.02 11.55ZM247.29 10.31L247.29 10.31L247.29 10.31Q247.29 9.75 246.84 9.41L246.84 9.41L246.84 9.41Q246.38 9.06 245.47 8.87L245.47 8.87L245.47 8.87Q244.56 8.68 244.05 8.43L244.05 8.43L244.05 8.43Q243.55 8.18 243.30 7.81L243.30 7.81L243.30 7.81Q243.06 7.45 243.06 6.94L243.06 6.94L243.06 6.94Q243.06 6.13 243.74 5.60L243.74 5.60L243.74 5.60Q244.42 5.07 245.48 5.07L245.48 5.07L245.48 5.07Q246.63 5.07 247.32 5.63L247.32 5.63L247.32 5.63Q248.02 6.20 248.02 7.12L248.02 7.12L247.25 7.12L247.25 7.12Q247.25 6.51 246.75 6.11L246.75 6.11L246.75 6.11Q246.24 5.71 245.48 5.71L245.48 5.71L245.48 5.71Q244.73 5.71 244.27 6.05L244.27 6.05L244.27 6.05Q243.82 6.38 243.82 6.91L243.82 6.91L243.82 6.91Q243.82 7.43 244.20 7.71L244.20 7.71L244.20 7.71Q244.58 7.99 245.57 8.23L245.57 8.23L245.57 8.23Q246.57 8.46 247.07 8.73L247.07 8.73L247.07 8.73Q247.57 8.99 247.81 9.37L247.81 9.37L247.81 9.37Q248.05 9.74 248.05 10.28L248.05 10.28L248.05 10.28Q248.05 11.15 247.35 11.67L247.35 11.67L247.35 11.67Q246.65 12.19 245.52 12.19L245.52 12.19L245.52 12.19Q244.32 12.19 243.58 11.61L243.58 11.61L243.58 11.61Q242.83 11.03 242.83 10.14L242.83 10.14L243.59 10.14L243.59 10.14Q243.64 10.80 244.15 11.18L244.15 11.18L244.15 11.18Q244.67 11.55 245.52 11.55L245.52 11.55L245.52 11.55Q246.31 11.55 246.80 11.20L246.80 11.20L246.80 11.20Q247.29 10.85 247.29 10.31Z" transform="rotate(0 124.541015625 8.50390625)"></path><defs id="SvgjsDefs1076"></defs></svg></g></svg>